<?xml version="1.0" standalone="no"?>
<!DOCTYPE svg PUBLIC "-//W3C//DTD SVG 20010904//EN"
 "http://www.w3.org/TR/2001/REC-SVG-20010904/DTD/svg10.dtd">
<svg version="1.0" xmlns="http://www.w3.org/2000/svg"
 width="558.000000pt" height="558.000000pt" viewBox="0 0 558.000000 558.000000"
 preserveAspectRatio="xMidYMid meet">
<metadata>
Created by potrace 1.14, written by Peter Selinger 2001-2017
</metadata>
<g transform="translate(0.000000,558.000000) scale(0.100000,-0.100000)"
fill="#000000" stroke="none">
<path d="M0 2790 l0 -2790 2790 0 2790 0 0 2790 0 2790 -2790 0 -2790 0 0
-2790z m3900 42 l0 -608 58 -15 c52 -13 57 -16 54 -39 -1 -14 -12 -33 -23 -42
-19 -16 -46 -18 -233 -18 -116 0 -221 -3 -233 -6 -15 -4 -23 0 -28 15 -10 32
11 58 60 76 l45 18 0 528 0 529 -59 0 c-51 0 -61 3 -66 20 -9 27 16 64 53 79
26 11 313 68 355 70 16 1 17 -34 17 -607z m560 0 l0 -609 55 -13 c51 -12 56
-16 53 -38 -2 -14 -14 -33 -28 -43 -22 -16 -50 -19 -255 -20 -230 -1 -230 -1
-233 21 -5 29 20 54 68 69 l40 12 0 529 0 529 -62 3 c-57 3 -63 5 -66 26 -4
29 29 67 66 77 41 11 314 62 340 64 l22 1 0 -608z m-1182 88 c64 -28 113 -83
135 -151 17 -52 22 -171 11 -241 l-7 -38 -233 0 c-154 0 -234 -4 -234 -10 0
-23 33 -87 58 -113 50 -53 98 -71 188 -70 78 0 107 9 206 61 4 2 12 -7 18 -19
9 -17 10 -31 1 -60 -25 -82 -112 -148 -242 -181 -77 -19 -92 -20 -174 -9 -228
30 -335 151 -335 375 1 100 12 153 53 235 53 108 153 195 267 233 78 26 215
20 288 -12z m-1818 -56 l0 -76 53 48 c79 71 145 99 239 99 70 0 79 -2 115 -31
21 -17 50 -53 64 -81 l26 -49 58 52 c77 69 135 97 212 102 89 6 129 -4 172
-44 80 -72 101 -168 101 -471 l0 -212 55 -11 c62 -13 67 -25 31 -67 l-24 -28
-225 -3 c-221 -3 -225 -3 -232 18 -9 29 18 67 55 75 l30 7 0 202 c0 223 -6
258 -51 281 -29 15 -96 19 -137 9 l-22 -6 2 -246 3 -246 38 -9 c44 -11 46 -19
11 -46 -25 -20 -40 -21 -226 -21 -171 0 -199 2 -205 16 -10 27 14 61 52 74
l37 12 -4 207 c-3 195 -4 208 -26 243 -30 48 -81 65 -150 52 l-47 -9 0 -250 0
-250 38 -9 c44 -11 49 -37 15 -73 -21 -23 -24 -23 -245 -23 l-223 0 0 23 c0
35 21 56 70 71 l45 13 3 281 2 281 -60 7 c-60 7 -60 7 -60 39 0 36 21 60 65
71 30 8 294 50 328 53 15 1 17 -9 17 -75z"/>
<path d="M3031 2784 c-24 -17 -71 -106 -71 -136 0 -16 12 -18 110 -18 l110 0
0 28 c0 108 -79 175 -149 126z"/>
</g>
</svg>
