<?xml version="1.0" encoding="UTF-8"?>
<svg id="ec-unity-illustration" xmlns="http://www.w3.org/2000/svg" viewBox="0 0 1197.41 844.92">
  <g id="background">
    <rect y="2.39" width="1197.41" height="842.53"/>
  </g>
  <g id="rain">
    <g id="rain_group" data-name="rain group">
      <g>
        <path d="M37.46,530.2s1.5,141.02,1.54,174.94-3.04,35.11-3.04,0,1.5-174.94,1.5-174.94h0Z" style="fill: #333;"/>
        <path d="M626.83,228.54c-.14-35.29-.3-71.65-.3-71.65,0,0-.16,36.19-.3,71.47l.6,.18Z" style="fill: #333;"/>
        <path d="M766.95,288.09c-.14-30.8-.39-72.51-.39-72.51,0,0-.24,40.72-.38,71.49,.26,.34,.51,.68,.77,1.02Z" style="fill: #333;"/>
        <g>
          <g>
            <path d="M390.06,188.33c-.03-31.93-1.04-146.19-1.41-187.06h-.27c-.37,40.67-1.37,154.03-1.37,187.06,.01,40.48,3.09,39.11,3.05,0Z" style="fill: #333;"/>
            <path d="M616.79,216.26c-.03-35.73-.84-153.83-1.27-214.98h-.54c-.43,60.83-1.23,178.05-1.23,214.98-.01,50.66,3.08,48.94,3.04,0Z" style="fill: #333;"/>
            <path d="M891.17,206.71c-.03-33.87-.69-138.04-1.13-205.44h-.82c-.44,67-1.09,170.45-1.09,205.44,0,53.31,3.09,51.5,3.04,0h0Z" style="fill: #333;"/>
            <path d="M1030.3,158.7c-.03-25.96-.62-103.26-1.07-157.42h-.95c-.44,53.85-1.03,130.62-1.03,157.42,.01,42.92,3.09,41.46,3.05,0h0Z" style="fill: #333;"/>
            <path d="M73.16,207.36c-.03-34.83-.98-156.72-1.37-206.07h-.34c-.39,49.11-1.33,170.05-1.33,206.07,0,45.57,3.08,44.03,3.04,0Z" style="fill: #333;"/>
            <path d="M163.34,121.59c-.03-19.85-.61-78.5-1.05-120.31h-.98c-.44,41.56-1.02,99.82-1.02,120.31,0,33.18,3.09,32.06,3.05,0Z" style="fill: #333;"/>
            <path d="M797.13,125.22c-.03-20.43-.64-81.73-1.08-123.95h-.92c-.44,41.97-1.04,102.84-1.04,123.95,0,33.4,3.09,32.27,3.04,0Z" style="fill: #333;"/>
            <path d="M1125.63,108.85c-.03-17.75-.6-70-1.05-107.57h-1c-.44,37.35-1,89.24-1,107.57,0,29.87,3.09,28.85,3.05,0Z" style="fill: #333;"/>
            <path d="M287,104.03c-.02-17.18-.47-63.62-.88-102.76h-1.33c-.4,38.89-.83,85.04-.83,102.76,0,32.97,3.09,31.85,3.04,0h0Z" style="fill: #333;"/>
            <path d="M477.66,41c-.01-7.38-.2-22.72-.44-39.72h-2.21c-.23,16.87-.4,32.14-.4,39.72,0,22.35,3.09,21.59,3.05,0Z" style="fill: #333;"/>
            <path d="M572.99,116.69c-.03-19.08-.57-74.24-1.01-115.41h-1.07c-.43,40.92-.97,95.71-.97,115.41,0,32.97,3.09,31.85,3.05,0Z" style="fill: #333;"/>
            <path d="M767.51,52.4c-.01-9.53-.2-29.21-.43-51.12h-2.22c-.22,21.72-.39,41.32-.39,51.12-.01,29.2,3.08,28.21,3.04,0Z" style="fill: #333;"/>
            <path d="M833.2,40.96c-.01-7.49-.18-22.62-.4-39.68h-2.29c-.21,16.92-.36,31.97-.36,39.68,0,24.12,3.1,23.3,3.05,0Z" style="fill: #333;"/>
            <path d="M209.71,29.22c0-6.61-.04-16.28-.1-27.95h-2.86c-.05,11.56-.08,21.2-.08,27.95,0,46.89,3.08,45.31,3.04,0h0Z" style="fill: #333;"/>
            <path d="M149.17,47.99c0-9.27-.13-26.52-.3-46.71h-2.47c-.16,20.01-.27,37.2-.27,46.71,0,35.18,3.08,33.98,3.04,0h0Z" style="fill: #333;"/>
            <path d="M26.79,23.95c0-5.04-.07-13.02-.15-22.66h-2.76c-.08,9.56-.13,17.51-.13,22.66-.01,28.31,3.08,27.36,3.04,0Z" style="fill: #333;"/>
            <path d="M64.14,149.48c-.02-24.63-.51-93.2-.93-148.2h-1.22c-.42,54.65-.89,122.78-.89,148.2,0,45.13,3.09,43.6,3.04,0Z" style="fill: #333;"/>
            <path d="M102.79,1.28h-3.03c.13,19.56,2.92,18.93,3.03,0Z" style="fill: #333;"/>
            <path d="M311.48,36.49c-.01-7.96-.06-20.28-.14-35.22h-2.79c-.07,14.78-.12,27.08-.12,35.22,.01,47.34,3.09,45.74,3.05,0h0Z" style="fill: #333;"/>
            <path d="M427.42,54.96c-.02-9.22-.35-31.95-.71-53.68h-1.67c-.34,21.57-.67,44.17-.67,53.68,.01,20.58,3.09,19.88,3.05,0h0Z" style="fill: #333;"/>
            <path d="M552.36,1.28h-3.01c.26,26.4,2.78,25.6,3.01,0Z" style="fill: #333;"/>
            <path d="M634.82,108.73c-.02-18.02-.45-66.17-.86-107.45h-1.37c-.39,41.02-.81,88.87-.81,107.45,0,35.18,3.08,33.99,3.04,0Z" style="fill: #333;"/>
            <path d="M721.13,70.73c-.02-12.74-.22-39.85-.47-69.45h-2.14c-.24,29.36-.43,56.34-.43,69.45,0,36.93,3.08,35.69,3.04,0Z" style="fill: #333;"/>
            <path d="M982.64,31.15c-.01-7.14-.04-17.44-.1-29.87h-2.87c-.05,12.31-.08,22.58-.08,29.87,0,52.87,3.09,51.08,3.05,0Z" style="fill: #333;"/>
            <path d="M1048.33,280.32c-.03-46.47-.86-201.46-1.29-279.04h-.51c-.43,77.17-1.25,231.01-1.25,279.04,0,65.04,3.1,62.84,3.05,0Z" style="fill: #333;"/>
            <path d="M1106.3,42.59c-.02-7.57-.22-23.71-.47-41.32h-2.14c-.24,17.46-.43,33.53-.43,41.32,0,21.91,3.09,21.16,3.04,0Z" style="fill: #333;"/>
            <path d="M1183.6,322.96c-.03-53.09-.6-209.04-1.04-321.67h-1c-.44,111.96-1,266.85-1,321.67-.01,89.58,3.08,86.55,3.04,0Z" style="fill: #333;"/>
            <path d="M1133.36,38.33c-.01-8.38-.06-21.35-.14-37.05h-2.79c-.07,15.56-.12,28.49-.12,37.05,0,50,3.09,48.3,3.05,0Z" style="fill: #333;"/>
            <path d="M928.53,48.67c-.02-8.19-.33-28.05-.68-47.4h-1.73c-.33,19.2-.64,38.95-.64,47.4,.01,18.8,3.09,18.17,3.05,0Z" style="fill: #333;"/>
            <path d="M270.26,25.25c-.01-5.46-.06-13.83-.13-23.98h-2.8c-.07,10.05-.11,18.4-.11,23.98,0,33.41,3.08,32.27,3.04,0h0Z" style="fill: #333;"/>
            <path d="M1061.47,71.1c-.01-12.62-.08-40.26-.16-69.81h-.66c-.08,29.33-.15,56.83-.15,69.81,0,34.72,.98,33.56,.97,0h0Z" style="fill: #333;"/>
            <path d="M1169.68,55.91c0-9.93-.07-31.44-.16-54.63h-.67c-.08,23.01-.15,44.41-.15,54.63,.01,27.87,.99,26.92,.98,0h0Z" style="fill: #333;"/>
            <path d="M1084.65,201.49c-.01-33.34-.27-144.5-.41-200.2h-.16c-.14,55.4-.4,165.74-.4,200.2,0,46.67,.99,45.09,.97,0h0Z" style="fill: #333;"/>
            <path d="M962.28,121.19c-.01-19.96-.16-74.99-.29-119.9h-.4c-.13,44.64-.28,99.3-.28,119.9,0,37.16,.98,35.9,.97,0h0Z" style="fill: #333;"/>
            <path d="M901.73,64.6c-.01-10.65-.14-38.75-.26-63.32h-.45c-.12,24.41-.25,52.34-.25,63.32,0,21.24,.97,20.52,.96,0Z" style="fill: #333;"/>
            <path d="M848.91,115.72c-.01-19.99-.1-67.2-.2-114.44h-.58c-.1,46.9-.19,93.85-.19,114.44,0,48,.99,46.37,.97,0h0Z" style="fill: #333;"/>
            <path d="M807.69,125.18c-.01-20.47-.18-79.89-.32-123.91h-.33c-.14,43.74-.31,102.77-.31,123.91-.01,35.18,.97,33.98,.96,0Z" style="fill: #333;"/>
            <path d="M753.59,83.1c-.01-14.4-.09-47.82-.19-81.82h-.6c-.1,33.75-.18,66.99-.18,81.82,0,35.61,.98,34.4,.97,0Z" style="fill: #333;"/>
            <path d="M687.89,76.33c0-14.8-.04-42.62-.1-75.06h-.78c-.05,32.15-.09,59.86-.09,75.06,0,55.09,.98,53.22,.97,0h0Z" style="fill: #333;"/>
            <path d="M493.37,58.91c0-12.14-.03-32.82-.07-57.63h-.84c-.04,24.58-.06,45.2-.06,57.63,0,56.41,.98,54.5,.97,0Z" style="fill: #333;"/>
            <path d="M377.43,85.59c0-14.89-.09-49.16-.19-84.31h-.61c-.09,34.88-.18,68.98-.18,84.31,0,37.39,.99,36.12,.98,0h0Z" style="fill: #333;"/>
            <path d="M252.47,135.48c0-22.84-.12-80.71-.24-134.2h-.5c-.12,53.12-.23,110.66-.23,134.2,0,48.67,.99,47.02,.97,0Z" style="fill: #333;"/>
            <path d="M91.45,62.92c0-13.03-.03-35.12-.07-61.63h-.84c-.04,26.28-.06,48.29-.06,61.63,0,61.28,.98,59.19,.97,0Z" style="fill: #333;"/>
            <path d="M7.71,174.13c0-28.5-.21-114.65-.35-172.85h-.28c-.14,57.86-.34,143.42-.34,172.85,0,46.01,.99,44.46,.97,0Z" style="fill: #333;"/>
            <path d="M38.63,113.92c0-18.87-.15-69.44-.27-112.64h-.43c-.13,42.93-.26,93.17-.26,112.64,0,36.72,.97,35.48,.96,0Z" style="fill: #333;"/>
            <path d="M1160.66,337.59c-.07-56.02-.31-243.02-.42-336.32h-.13c-.11,92.81-.34,278.41-.41,336.32-.01,78.31,.97,75.66,.96,0h0Z" style="fill: #333;"/>
            <path d="M237.01,373.89c0-63.02-.31-283.78-.44-372.61h-.11c-.12,88.38-.42,307.45-.42,372.61,0,82.29,.99,79.5,.97,0Z" style="fill: #333;"/>
            <path d="M121.08,526.01c-.01-89.9-.34-413.96-.45-524.72h-.08c-.11,110.23-.44,431.76-.44,524.72,0,112.82,.98,109,.97,0Z" style="fill: #333;"/>
            <path d="M889.22,844.92h.82c-.23-35.1-.41-60.22-.41-60.22,0,0-.18,25.12-.41,60.22h0Z" style="fill: #333;"/>
            <path d="M1028.28,844.92h.95c-.26-32.34-.47-56.42-.47-56.42,0,0-.21,24.08-.48,56.42Z" style="fill: #333;"/>
            <path d="M71.45,844.92h.34c-.1-13.02-.17-20.99-.17-20.99,0,0-.07,7.98-.17,20.99Z" style="fill: #333;"/>
            <path d="M161.3,844.92h.98c-.27-25.71-.49-45.04-.49-45.04,0,0-.22,19.32-.49,45.04h0Z" style="fill: #333;"/>
            <path d="M1123.59,844.92h1c-.28-23.49-.5-41.24-.5-41.24,0,0-.23,17.74-.5,41.24Z" style="fill: #333;"/>
            <path d="M284.8,844.92h1.33c-.35-33.41-.67-61.48-.67-61.48,0,0-.32,28.05-.66,61.48h0Z" style="fill: #333;"/>
            <path d="M206.75,844.92h2.86c-.35-68.33-1.44-205.74-1.44-205.74,0,0-1.1,136.92-1.42,205.74Z" style="fill: #333;"/>
            <path d="M146.39,844.92h2.47c-.45-53.83-1.24-128.55-1.24-128.55,0,0-.8,74.57-1.23,128.55Z" style="fill: #333;"/>
            <path d="M23.87,844.92h2.76c-.39-42.74-1.39-118.43-1.39-118.43,0,0-1,75.46-1.37,118.43Z" style="fill: #333;"/>
            <path d="M61.99,844.92h1.22c-.32-42.36-.61-76.67-.61-76.67,0,0-.29,34.28-.61,76.67Z" style="fill: #333;"/>
            <path d="M101.25,735.35s-1.5,86.34-1.5,108.02c0,.53,0,1.04,.01,1.54h3.03c0-.5,.01-1.01,0-1.54-.04-20.94-1.54-108.02-1.54-108.02h0Z" style="fill: #333;"/>
            <path d="M308.55,844.92h2.79c-.38-70.92-1.4-200.68-1.4-200.68,0,0-1.03,129.36-1.39,200.68Z" style="fill: #333;"/>
            <path d="M979.67,844.92h2.87c-.34-76.45-1.45-233.58-1.45-233.58,0,0-1.11,156.56-1.42,233.58Z" style="fill: #333;"/>
            <path d="M1046.54,844.92h.51c-.15-27.32-.25-45.04-.25-45.04,0,0-.11,17.72-.26,45.04Z" style="fill: #333;"/>
            <path d="M1103.7,844.92h2.14c-.45-31.56-1.07-67.81-1.07-67.81,0,0-.63,36.2-1.07,67.81h0Z" style="fill: #333;"/>
            <path d="M1181.55,844.92h1c-.28-70.97-.5-124.75-.5-124.75,0,0-.22,53.74-.5,124.75Z" style="fill: #333;"/>
            <path d="M1130.43,844.92h2.79c-.38-74.87-1.4-212.07-1.4-212.07,0,0-1.04,136.77-1.39,212.07Z" style="fill: #333;"/>
            <path d="M926.12,844.92h1.73c-.41-23.54-.87-46.31-.87-46.31,0,0-.45,22.74-.86,46.31Z" style="fill: #333;"/>
            <path d="M267.33,844.92h2.8c-.37-49.84-1.41-142.47-1.41-142.47,0,0-1.05,92.34-1.39,142.47h0Z" style="fill: #333;"/>
            <path d="M1060.65,844.92h.66c-.14-48.98-.33-103.24-.33-103.24,0,0-.19,54.18-.33,103.24h0Z" style="fill: #333;"/>
            <path d="M1168.85,844.92h.67c-.14-39.66-.33-84.26-.33-84.26,0,0-.2,44.53-.34,84.26h0Z" style="fill: #333;"/>
            <path d="M1084.08,844.92h.16c-.05-19.64-.08-32.38-.08-32.38,0,0-.03,12.74-.08,32.38h0Z" style="fill: #333;"/>
            <path d="M961.58,844.92h.4c-.11-35.86-.2-65.28-.2-65.28,0,0-.09,29.4-.2,65.28Z" style="fill: #333;"/>
            <path d="M901.01,844.92h.45c-.12-22.77-.23-42.5-.23-42.5,0,0-.1,19.72-.22,42.5h0Z" style="fill: #333;"/>
            <path d="M848.13,844.92h.58c-.14-62.35-.29-124.75-.29-124.75,0,0-.15,62.34-.29,124.75h0Z" style="fill: #333;"/>
            <path d="M251.73,844.92h.5c-.12-56.61-.25-108.31-.25-108.31,0,0-.12,51.65-.25,108.31Z" style="fill: #333;"/>
            <path d="M90.54,844.92h.84c-.13-93.99-.42-243.71-.42-243.71,0,0-.3,149.34-.42,243.71Z" style="fill: #333;"/>
            <path d="M7.08,844.92h.28c-.08-32.6-.14-56.42-.14-56.42,0,0-.06,23.81-.14,56.42Z" style="fill: #333;"/>
            <path d="M37.92,844.92h.43c-.11-38.02-.22-70.34-.22-70.34,0,0-.1,32.3-.21,70.34Z" style="fill: #333;"/>
            <path d="M1160.1,844.92h.13c-.04-32.7-.07-53.89-.07-53.89,0,0-.02,21.19-.06,53.89Z" style="fill: #333;"/>
            <path d="M236.47,844.92h.11c-.03-23.23-.05-37.44-.05-37.44,0,0-.03,14.21-.06,37.44Z" style="fill: #333;"/>
            <path d="M120.55,844.92h.08c-.02-23.53-.04-37.44-.04-37.44,0,0-.02,13.92-.04,37.44Z" style="fill: #333;"/>
            <path d="M294.18,378.9s1.5,245.99,1.54,305.14c.04,59.16-3.04,61.24-3.04,0s1.5-305.14,1.5-305.14Z" style="fill: #333;"/>
            <path d="M216.7,115.72s1.5,345.79,1.54,428.96c.04,83.16-3.04,86.08-3.04,0s1.5-428.96,1.5-428.96h0Z" style="fill: #333;"/>
            <path d="M130.81,24.03s1.5,388.29,1.54,481.68c.04,93.39-3.04,96.67-3.04,0s1.5-481.68,1.5-481.68h0Z" style="fill: #333;"/>
            <path d="M161.62,495.36s1.5,220.87,1.54,273.99-3.04,54.99-3.04,0,1.5-273.99,1.5-273.99Z" style="fill: #333;"/>
            <path d="M873.9,548.55s1.5,202.83,1.54,251.62c.04,48.78-3.04,50.5-3.04,0s1.5-251.62,1.5-251.62Z" style="fill: #333;"/>
            <path d="M932.71,392.65s1.5,242.12,1.54,300.35c.04,58.23-3.04,60.27-3.04,0s1.5-300.35,1.5-300.35Z" style="fill: #333;"/>
            <path d="M998.06,199.17s1.5,277.54,1.54,344.28-3.04,69.09-3.04,0,1.5-344.28,1.5-344.28h0Z" style="fill: #333;"/>
            <path d="M1097.02,280.78s1.5,282.68,1.54,350.68c.04,67.98-3.04,70.37-3.04,0s1.5-350.68,1.5-350.68h0Z" style="fill: #333;"/>
            <path d="M1146.49,35.94s1.5,450.11,1.54,558.36c.04,108.26-3.04,112.05-3.04,0s1.5-558.36,1.5-558.36h0Z" style="fill: #333;"/>
            <path d="M1165.16,481.61s1.5,197.69,1.54,245.23-3.04,49.21-3.04,0,1.5-245.23,1.5-245.23Z" style="fill: #333;"/>
            <path d="M1170.76,221.17s1.5,209.28,1.54,259.61-3.04,52.1-3.04,0,1.5-259.61,1.5-259.61h0Z" style="fill: #333;"/>
            <path d="M1008.33,50.62s1.5,314.23,1.54,389.81-3.04,78.23-3.04,0,1.5-389.81,1.5-389.81Z" style="fill: #333;"/>
            <path d="M1047.54,471.52s1.5,224.73,1.54,278.78c.04,54.05-3.04,55.94-3.04,0s1.5-278.78,1.5-278.78Z" style="fill: #333;"/>
            <path d="M912.18,37.78s1.5,277.54,1.54,344.28-3.04,69.09-3.04,0,1.5-344.28,1.5-344.28Z" style="fill: #333;"/>
            <path d="M953.25,266.11s1.5,386.35,1.54,479.28c.04,92.92-3.04,96.19-3.04,0s1.5-479.28,1.5-479.28h0Z" style="fill: #333;"/>
            <path d="M860.83,71.71s1.5,265.3,1.54,329.11c.04,63.81-3.04,66.05-3.04,0s1.5-329.11,1.5-329.11h0Z" style="fill: #333;"/>
            <path d="M889.77,387.15s1.5,105.61,1.54,131c.04,25.4-3.04,26.29-3.04,0s1.5-131,1.5-131h0Z" style="fill: #333;"/>
            <path d="M330.59,35.03s1.5,138.44,1.54,171.74c.04,33.3-3.04,34.47-3.04,0s1.5-171.74,1.5-171.74Z" style="fill: #333;"/>
            <path d="M273.64,197.33s1.5,249.85,1.54,309.93-3.04,62.2-3.04,0,1.5-309.93,1.5-309.93Z" style="fill: #333;"/>
            <path d="M237.23,669.59s1.5,107.53,1.54,133.4-3.04,26.77-3.04,0,1.5-133.4,1.5-133.4Z" style="fill: #333;"/>
            <path d="M186.82,105.64s1.5,206.06,1.54,255.61-3.04,51.3-3.04,0,1.5-255.61,1.5-255.61h0Z" style="fill: #333;"/>
            <path d="M199.89,261.53s1.5,171.28,1.54,212.48-3.04,42.64-3.04,0,1.5-212.48,1.5-212.48Z" style="fill: #333;"/>
            <path d="M20.66,137.73s1.5,251.78,1.54,312.33c.04,60.56-3.04,62.68-3.04,0s1.5-312.33,1.5-312.33Z" style="fill: #333;"/>
            <path d="M5.72,363.31s1.5,210.56,1.54,261.21-3.04,52.42-3.04,0,1.5-261.21,1.5-261.21Z" style="fill: #333;"/>
            <path d="M69.2,283.53s1.5,162.91,1.54,202.1-3.04,40.56-3.04,0,1.5-202.1,1.5-202.1h0Z" style="fill: #333;"/>
            <path d="M106.54,97.38s1.5,188.03,1.54,233.25c.04,45.22-3.04,46.81-3.04,0s1.5-233.25,1.5-233.25h0Z" style="fill: #333;"/>
            <path d="M102.81,506.36s1.5,104.96,1.54,130.2-3.04,26.13-3.04,0,1.5-130.2,1.5-130.2Z" style="fill: #333;"/>
            <path d="M75.73,686.09s1.5,91.44,1.54,113.43c.04,21.99-3.04,22.76-3.04,0s1.5-113.43,1.5-113.43h0Z" style="fill: #333;"/>
            <path d="M1113.82,190.92s1.5,166.77,1.54,206.89c.04,40.11-3.04,41.52-3.04,0s1.5-206.89,1.5-206.89Z" style="fill: #333;"/>
            <path d="M877.65,164.33s.48,226.02,.49,280.38c.01,54.36-.97,56.27-.97,0s.48-280.38,.48-280.38h0Z" style="fill: #333;"/>
            <path d="M838.44,74.46s.48,146.17,.49,181.33-.97,36.38-.97,0,.48-181.33,.48-181.33Z" style="fill: #333;"/>
            <path d="M844.98,359.65s.48,233.75,.49,289.96c.01,56.22-.97,58.19-.97,0s.48-289.96,.48-289.96h0Z" style="fill: #333;"/>
            <path d="M1033.55,211.09s.48,246.62,.49,305.94c.01,59.31-.97,61.39-.97,0s.48-305.94,.48-305.94Z" style="fill: #333;"/>
            <path d="M1073.69,123.97s.48,248.56,.49,308.34-.97,61.87-.97,0,.48-308.34,.48-308.34Z" style="fill: #333;"/>
            <path d="M1084.89,378.9s.48,233.11,.49,289.17-.97,58.03-.97,0,.48-289.17,.48-289.17Z" style="fill: #333;"/>
            <path d="M1010.21,540.29s.48,136.51,.49,169.35c.01,32.83-.97,33.99-.97,0s.48-169.35,.48-169.35Z" style="fill: #333;"/>
            <path d="M1093.3,28.6s.48,112.69,.49,139.79-.97,28.05-.97,0,.48-139.79,.48-139.79Z" style="fill: #333;"/>
            <path d="M1125.04,388.99s.48,139.73,.49,173.34-.97,34.78-.97,0,.48-173.34,.48-173.34Z" style="fill: #333;"/>
            <path d="M1115.7,643.91s.48,101.75,.49,126.21-.97,25.32-.97,0,.48-126.21,.48-126.21Z" style="fill: #333;"/>
            <path d="M996.21,708.1s.48,80.49,.49,99.85-.97,20.04-.97,0,.48-99.85,.48-99.85Z" style="fill: #333;"/>
            <path d="M893.52,560.47s.48,95.95,.49,119.02-.97,23.89-.97,0,.48-119.02,.48-119.02Z" style="fill: #333;"/>
            <path d="M905.66,478.86s.48,108.18,.49,134.2-.97,26.93-.97,0,.48-134.2,.48-134.2Z" style="fill: #333;"/>
            <path d="M915.93,705.35s.48,90.15,.49,111.83-.97,22.45-.97,0,.48-111.83,.48-111.83Z" style="fill: #333;"/>
            <path d="M318.47,87.3s.48,184.16,.49,228.46c.01,44.29-.97,45.84-.97,0s.48-228.46,.48-228.46Z" style="fill: #333;"/>
            <path d="M263.39,116.64s.48,188.67,.49,234.05c.01,45.37-.97,46.97-.97,0s.48-234.05,.48-234.05h0Z" style="fill: #333;"/>
            <path d="M282.06,193.67s.48,157.12,.49,194.91c.01,37.79-.97,39.11-.97,0s.48-194.91,.48-194.91Z" style="fill: #333;"/>
            <path d="M177.5,430.25s.48,159.05,.49,197.3-.97,39.6-.97,0c0-39.6,.48-197.3,.48-197.3h0Z" style="fill: #333;"/>
            <path d="M169.1,189.08s.48,197.05,.49,244.43c.01,47.39-.97,49.06-.97,0s.48-244.43,.48-244.43Z" style="fill: #333;"/>
            <path d="M147.63,102.89s.48,125.57,.49,155.76c0,30.2-.97,31.26-.97,0s.48-155.76,.48-155.76Z" style="fill: #333;"/>
            <path d="M146.7,439.42s.48,166.13,.49,206.09c0,39.96-.97,41.35-.97,0s.48-206.09,.48-206.09h0Z" style="fill: #333;"/>
            <path d="M82.28,419.25s.48,148.75,.49,184.52c.01,35.78-.97,37.03-.97,0s.48-184.52,.48-184.52h0Z" style="fill: #333;"/>
            <path d="M44.01,178.99s.48,160.34,.49,198.9c0,38.56-.97,39.92-.97,0s.48-198.9,.48-198.9Z" style="fill: #333;"/>
            <path d="M55.21,469.68s.48,149.4,.49,185.32c0,35.93-.97,37.19-.97,0s.48-185.32,.48-185.32Z" style="fill: #333;"/>
            <path d="M14.14,553.13s.48,179.66,.49,222.86c0,43.21-.97,44.72-.97,0s.48-222.86,.48-222.86Z" style="fill: #333;"/>
            <path d="M49.61,35.94s.48,74.05,.49,91.86-.97,18.44-.97,0,.48-91.86,.48-91.86Z" style="fill: #333;"/>
            <path d="M195.24,13.02s.48,126.21,.49,156.57-.97,31.42-.97,0,.48-156.57,.48-156.57Z" style="fill: #333;"/>
            <path d="M585.46,16.69s.48,81.14,.49,100.65-.97,20.2-.97,0,.48-100.65,.48-100.65Z" style="fill: #333;"/>
            <path d="M979.41,107.47s.48,171.93,.49,213.28c.01,41.35-.97,42.8-.97,0s.48-213.28,.48-213.28h0Z" style="fill: #333;"/>
            <path d="M937.4,20.35s.48,135.87,.49,168.55c.01,32.68-.97,33.82-.97,0s.48-168.55,.48-168.55Z" style="fill: #333;"/>
            <path d="M924.33,193.67s.48,162.27,.49,201.3c.01,39.03-.97,40.39-.97,0s.48-201.3,.48-201.3h0Z" style="fill: #333;"/>
            <path d="M986.87,397.24s.48,132.65,.49,164.55-.97,33.02-.97,0c.01-33.02,.48-164.55,.48-164.55h0Z" style="fill: #333;"/>
            <path d="M966.34,283.53s.48,117.2,.49,145.38-.97,29.17-.97,0,.48-145.38,.48-145.38Z" style="fill: #333;"/>
            <path d="M1125.04,157.9s.48,76.63,.49,95.06-.97,19.08-.97,0,.48-95.06,.48-95.06h0Z" style="fill: #333;"/>
            <path d="M1195.05,185.42s.48,251.13,.49,311.53-.97,62.52-.97,0,.48-311.53,.48-311.53h0Z" style="fill: #333;"/>
            <path d="M1186.65,456.84s.48,166.77,.49,206.89c.01,40.11-.97,41.52-.97,0s.48-206.89,.48-206.89h0Z" style="fill: #333;"/>
            <path d="M1196.92,597.14s.48,133.94,.49,166.15c.01,32.21-.97,33.34-.97,0s.48-166.15,.48-166.15Z" style="fill: #333;"/>
            <path d="M1194.12,10.26s.48,51.51,.49,63.91c.01,12.39-.97,12.83-.97,0s.48-63.91,.48-63.91Z" style="fill: #333;"/>
            <path d="M352.95,1.28h-.97c.02,42.39,.97,40.98,.97,0Z" style="fill: #333;"/>
            <path d="M309.13,400.91s.48,111.4,.49,138.19c.01,26.8-.97,27.73-.97,0s.48-138.19,.48-138.19h0Z" style="fill: #333;"/>
            <path d="M197.11,546.71s.48,141.67,.49,175.73c0,34.08-.97,35.26-.97,0s.48-175.73,.48-175.73Z" style="fill: #333;"/>
            <path d="M237.25,474.27s.4,119.77,.49,148.57v2.04h-.97c.02-3.12,.03-5.87,.05-8.25h.88c-.16,15.35-.71,15.75-.87,0h.87c0,2.35,.03,5.11,.05,8.25h-.96v-2.04c.08-29.81,.46-148.57,.46-148.57h0Z" style="fill: #333;"/>
            <path d="M179.37,698.93s.48,88.22,.49,109.44c0,21.22-.97,21.96-.97,0s.48-109.44,.48-109.44Z" style="fill: #333;"/>
            <path d="M132.69,598.98s.48,130.71,.49,162.16c0,31.44-.97,32.54-.97,0s.48-162.16,.48-162.16Z" style="fill: #333;"/>
            <path d="M793.63,219.35s.48,90.15,.49,111.83-.97,22.45-.97,0,.48-111.83,.48-111.83Z" style="fill: #333;"/>
            <path d="M860.85,617.32s.48,121.71,.49,150.97c.01,29.27-.97,30.29-.97,0s.48-150.97,.48-150.97Z" style="fill: #333;"/>
            <path d="M960.74,495.36s.48,77.27,.49,95.85-.97,19.23-.97,0,.48-95.85,.48-95.85Z" style="fill: #333;"/>
            <path d="M1061.56,610.91s.48,53.45,.49,66.3-.97,13.31-.97,0,.48-66.3,.48-66.3Z" style="fill: #333;"/>
            <path d="M339.94,14.85s.48,164.85,.49,204.49c0,39.65-.97,41.04-.97,0s.48-204.49,.48-204.49Z" style="fill: #333;"/>
            <path d="M299.8,110.22s.48,141.02,.49,174.94c.01,33.92-.97,35.11-.97,0s.48-174.94,.48-174.94Z" style="fill: #333;"/>
            <path d="M670.41,45.12s.48,44.43,.49,55.12c.01,10.69-.97,11.06-.97,0s.48-55.12,.48-55.12Z" style="fill: #333;"/>
            <path d="M271.79,608.15s.48,41.86,.49,51.92c.01,10.07-.97,10.42-.97,0s.48-51.92,.48-51.92Z" style="fill: #333;"/>
            <path d="M88.82,190.92s.48,130.71,.49,162.16c.01,31.44-.97,32.54-.97,0s.48-162.16,.48-162.16h0Z" style="fill: #333;"/>
            <path d="M54.28,323.88s.48,41.86,.49,51.92c0,10.07-.97,10.42-.97,0s.48-51.92,.48-51.92h0Z" style="fill: #333;"/>
            <path d="M957.93,181.74s.48,48.3,.49,59.91-.97,12.02-.97,0c.01-12.02,.48-59.91,.48-59.91h0Z" style="fill: #333;"/>
            <path d="M1062.49,379.82s.48,126.21,.49,156.57-.97,31.42-.97,0,.48-156.57,.48-156.57Z" style="fill: #333;"/>
            <path d="M31.87,453.18s.48,34.77,.49,43.13c0,8.36-.97,8.65-.97,0s.48-43.13,.48-43.13h0Z" style="fill: #333;"/>
            <path d="M1080.23,737.45s.48,41.86,.49,51.92-.97,10.42-.97,0,.48-51.92,.48-51.92Z" style="fill: #333;"/>
            <path d="M1025.15,595.32s.48,44.43,.49,55.12-.97,11.06-.97,0,.48-55.12,.48-55.12Z" style="fill: #333;"/>
            <path d="M1152.11,721.86s.48,70.83,.49,87.87-.97,17.63-.97,0,.48-87.87,.48-87.87Z" style="fill: #333;"/>
            <path d="M1111.03,90.05s.48,50.87,.49,63.1c.01,12.24-.97,12.66-.97,0s.48-63.1,.48-63.1Z" style="fill: #333;"/>
            <path d="M456.63,32.28s.48,73.41,.49,91.06c.01,17.65-.97,18.27-.97,0s.48-91.06,.48-91.06Z" style="fill: #333;"/>
            <path d="M156.03,202.83s.48,99.81,.49,123.82c0,24.01-.97,24.84-.97,0s.48-123.82,.48-123.82h0Z" style="fill: #333;"/>
          </g>
          <path d="M707.94,296.63c.2-7.33,.32-17.08,.31-29.21-.03-44.33-.86-192.38-1.29-266.13h-.5c-.43,73.37-1.25,220.31-1.25,266.13,0,11.48,.11,20.77,.28,27.89,.8,.42,1.62,.87,2.45,1.33h0Z" style="fill: #333;"/>
          <path d="M533.72,236.43c-.28-54.84-1.49-184.9-1.49-184.9,0,0-1.21,129.02-1.46,184.59,.98,.1,1.97,.2,2.95,.3Z" style="fill: #333;"/>
          <path d="M508.99,1.9s1.5,120.37,1.54,154.29-3.04,35.11-3.04,0,1.5-154.29,1.5-154.29Z" style="fill: #333;"/>
          <path d="M423.48,93.68s1.5,97.6,1.54,121.08-3.04,24.29-3.04,0,1.5-121.08,1.5-121.08Z" style="fill: #333;"/>
          <path d="M481.67,108.96s1.5,41.75,1.54,51.79-3.04,10.39-3.04,0,1.5-51.79,1.5-51.79Z" style="fill: #333;"/>
          <path d="M753.64,128.09s1.5,75.92,1.54,94.18-3.04,18.9-3.04,0,1.5-94.18,1.5-94.18Z" style="fill: #333;"/>
          <path d="M734.6,82.44s1.5,141.02,1.54,174.94-3.04,35.11-3.04,0,1.5-174.94,1.5-174.94Z" style="fill: #333;"/>
          <path d="M780.95,38.43s1.5,141.02,1.54,174.94-3.04,35.11-3.04,0,1.5-174.94,1.5-174.94Z" style="fill: #333;"/>
          <path d="M559.09,2.53s.48,148.47,.49,192.45c.01,43.99-.97,45.53-.97,0s.48-192.45,.48-192.45Z" style="fill: #333;"/>
          <path d="M364.39,0s.48,182.87,.49,226.86c0,43.99-.97,45.53-.97,0S364.39,0,364.39,0Z" style="fill: #333;"/>
          <path d="M599.26,2.35s.48,159.28,.49,203.27-.97,45.53-.97,0,.48-203.27,.48-203.27Z" style="fill: #333;"/>
          <path d="M818.68,40.98s.48,182.87,.49,226.86-.97,45.53-.97,0,.48-226.86,.48-226.86Z" style="fill: #333;"/>
          <path d="M683,285.34c.02-2.25,.03-4.79,.03-7.67-.01-25.71-.49-132.6-.49-132.6,0,0-.48,105.99-.48,132.6,0,2.75,.01,5.19,.03,7.35,.3,.11,.6,.21,.91,.32h0Z" style="fill: #333;"/>
          <path d="M406.69,259.73c-.09-56.16-.47-192.61-.47-192.61,0,0-.39,136.48-.47,193.01,.32-.13,.63-.27,.94-.4Z" style="fill: #333;"/>
          <path d="M649.23,265.5c-.05-58.05-.32-204.42-.43-264.23h-.1c-.11,59.49-.38,204.72-.42,263.9,.32,.11,.64,.22,.95,.32h0Z" style="fill: #333;"/>
          <path d="M441.95,243.82c.09-6.37,.15-15.8,.15-28.22,0-35.51-.26-151-.4-214.33h-.19c-.14,62.98-.38,177.63-.38,214.33,0,12.68,.06,22.13,.15,28.44,.23-.07,.45-.14,.67-.22Z" style="fill: #333;"/>
        </g>
      </g>
    </g>
  </g>
  <g id="umbrella">
    <path d="M529.15,238.04c-.15,.04-.29,.09-.44,.13" style="fill: #666;"/>
    <path d="M528.71,238.17c.15-.04,.29-.09,.44-.13" style="fill: #666;"/>
    <path d="M821.44,482.41c-.33-.29-.67-.58-1.02-.88-.03-.03-.06-.05-.09-.08-.34-.29-.68-.58-1.03-.88-.05-.04-.1-.08-.14-.12-.34-.29-.69-.58-1.04-.87-.06-.05-.13-.11-.19-.16-.35-.29-.7-.57-1.06-.87-.08-.07-.17-.14-.25-.2-.35-.28-.7-.57-1.07-.86l-.3-.24c-.35-.28-.71-.56-1.07-.85-.13-.1-.26-.2-.38-.3-.35-.27-.7-.55-1.06-.83-.15-.12-.3-.23-.45-.35-.35-.27-.7-.54-1.06-.81-.17-.13-.34-.26-.51-.38-.35-.27-.71-.54-1.07-.81-.18-.14-.37-.28-.55-.41-.36-.27-.72-.54-1.09-.81-.19-.14-.4-.29-.59-.43-.37-.27-.74-.54-1.12-.82l-.66-.48c-.37-.27-.74-.53-1.11-.8-.24-.17-.48-.34-.73-.51-.37-.26-.75-.53-1.13-.8-.25-.17-.5-.35-.76-.53-.39-.27-.77-.54-1.17-.81-.27-.19-.55-.38-.82-.56-.38-.26-.77-.52-1.16-.79-.3-.2-.6-.41-.91-.61-.39-.26-.77-.52-1.16-.78-.31-.2-.62-.41-.93-.61-.4-.26-.8-.53-1.21-.79-.32-.21-.65-.42-.97-.63-.41-.27-.82-.53-1.24-.8-.32-.21-.65-.42-.98-.62-.44-.28-.87-.55-1.31-.83-.32-.2-.65-.4-.97-.61-.46-.29-.92-.57-1.39-.86-.33-.21-.67-.41-1.01-.62-.47-.29-.94-.58-1.42-.87-.34-.21-.7-.42-1.05-.63-.49-.29-.97-.58-1.46-.88-.35-.21-.71-.42-1.06-.63-.51-.3-1.01-.6-1.53-.9-.34-.2-.68-.4-1.02-.59-.54-.32-1.09-.63-1.64-.95-.33-.19-.67-.38-1-.57-.58-.33-1.15-.66-1.74-.99-.29-.17-.6-.33-.9-.5-.64-.36-1.28-.72-1.93-1.08-.21-.11-.42-.23-.63-.35-.75-.41-1.5-.82-2.26-1.24l-.39-.21c-3.74-2.02-7.67-4.08-11.8-6.16-.05-.03-.1-.05-.15-.08-.26-.09-.52-.19-.79-.28l-16.74-8.09h0c-.06-.03-.13-.06-.19-.09-1.13-.51-2.26-1.02-3.42-1.54-.64-.28-1.28-.57-1.93-.85-.57-.25-1.13-.5-1.7-.75-.86-.37-1.73-.75-2.6-1.13-.36-.15-.71-.31-1.08-.46-1.02-.43-2.05-.87-3.08-1.31-.21-.09-.42-.18-.64-.27-1.13-.47-2.27-.95-3.42-1.42-.12-.05-.25-.1-.37-.15-1.22-.5-2.44-1-3.68-1.5-.06-.02-.11-.04-.17-.07-2.61-1.05-5.26-2.1-7.97-3.15l-3.71-.81c.01,.27,.01,.52,.01,.75,0,.58-.33,1.12-.85,1.38-.22,.11-.46,.16-.69,.16-.33,0-.65-.1-.92-.3-.26-.19-26.46-19.52-69.36-40.05-25.06-11.99-59.24-25.95-99.21-36.13-3.85-.88-7.69-1.82-11.35-2.75-19.91-4.58-41.12-8.14-63.24-10.02-.61-.05-1.13-.46-1.33-1.04s-.04-1.22,.41-1.64l1.15-1.07c-34.02-9.95-60.91-15.34-81.37-18.16l-24.94-2.49c-2.01-.11-3.9-.2-5.68-.26h-.05c-.85-.03-1.68-.05-2.48-.07h-.26c-.77-.01-1.53-.03-2.25-.03h0c6.43,2.98,25.57,12.98,25.02,26.19l-1.98,4.63s23.8-1.98,39.01,5.95c0,0,87.27,34.38,91.24,50.91,0,0,72.07,.66,161.32,57.52,0,0,31.74-1.98,54.88,8.59,0,0,71.4,19.83,80,32.4,0,0,11.21-21.6,30.22-10.07-.32-.29-.66-.58-1-.88-.03,0-.05-.01-.07-.02h0Z" style="fill: #333;"/>
    <path d="M491.51,658.17c.35-.97,.71-1.93,1.09-2.87,.38-.96,.66-1.95,1.04-2.9,.41-1.04,.47-2.22,.88-3.26,.58-1.48,1.42-2.85,2-4.33,.6-1.27,1.06-2.69,1.57-4,.5-1.01,.96-1.93,1.37-2.98,.72-1.82,1.29-3.81,1.96-5.75,.9-2.55,1.77-5.02,2.76-7.54,.14-.35,.31-.78,.36-1.16,.35-1.67,.11-2.06-1.39-2.85-1.36-.63-2.83-1.21-4.23-1.76-1.3-.51-2.64-.94-3.98-1.36l-1.04-.41c-1.3-.51-2.24-.68-3,.73-1.8,3.31-3.18,7.08-4.54,10.56l-1.5,3.82c-.27,.7-.37,1.46-.68,2.24-.24,.61-.62,1.06-.86,1.67l-.44,1.13c-4.76,12.13-7.47,27.43-16.34,37.39-5.16,5.8-17.24,8.2-23.27,2.13-1.73-1.74-3.71-3.56-4.85-5.8-.72-1.41-2.22-5.37-2.61-6.95-.3-1-.31-2.04-.23-3.13,.34-4.05,1.67-9.45,4.95-12.28l1.74-1.52c.7-.68,1.49-1.18,2.32-1.61,2.08-1.06,4.62-1.42,6.79-1.9,1.79-.39,8.32,.68,8.98,.34,.5-.25,.66-.76,.7-1.3,0-.42-2.22-5.99-2.52-6.58-.59-1.16-2.16-3.62-2.92-4.69-.47-.71-1.05-1.24-1.89-1.45l-2.13-.48c-3.26-.64-7.55,.82-10.46,2.3-1.58,.81-3.12,1.7-4.7,2.5-2.49,1.27-5.06,3.63-6.8,5.78-1.36,1.64-3.06,3.24-3.97,5.17-1.23,2.72-2.67,5.24-3.4,8.13-.32,1.21-.73,2.47-.89,3.81-.72,3.72-.45,10.82,.67,14.45,.52,1.62,1.15,3.08,1.92,4.58,.25,.5,.34,1.08,.6,1.58,.59,1.16,3.25,4.32,4.1,5.56,.8,.95,1.52,1.74,2.4,2.44,1.05,.83,1.77,1.82,2.9,2.61,1.6,1.07,3.27,1.89,4.95,2.71,1.38,.66,2.85,1.69,4.24,2.14l2.85,.85c3.18,.89,6.81,.82,10.07,.83,.96,.04,1.84-.1,2.67-.31,9.28-2.4,18.13-6.36,23.55-14.66,4.18-6.41,6.54-14.32,9.21-21.62h0Zm-34.44-17.92c.37-.09,.84,.2,1.01,.53,.13,.25,.01,.63-.25,.75-.17,.08-.8-.54-.88-.7-.09-.16,.03-.54,.12-.58Zm40.17-4.19c.35,.14,.21,.99,.11,1.25-.17,.43-.48,.71-.83,1.08-.51-.5-.58-.83-.27-1.61,.11-.27,.55-.9,.99-.72h0Zm-14.3,35.41l.12-.05c.45,.38-.4,2.55-.64,3.16l-.24,.61c-.38,.96-.84,1.88-1.27,2.71-.02,.06-.06,.08-.12,.05-.17-.07-.11-.24-.04-.42l2.19-6.06Zm-14.86,6.15c.13,.04,1.17,.24,1.21,.32v.21c-.21,.21-.33,.38-.58,.51-.42,.21-.75,.17-1.17,.18l-.04-.08c.25-.34,.62-.64,.58-1.14h0Zm14.36-29.92c.07-.17,.38-.45,.47-.42s.16,.36,.16,.36c-.36,1.16-.77,2.21-1.21,3.34l-.89,2.26c-.68,1.74-1.5,3.32-2.19,5.06-.17,.44-.29,.99-.49,1.51-.07,.17-.17,.44-.32,.57,.11-1.06,.61-2.07,.55-3.19-.05-.12-.02-.21,.02-.3,.65-1.65,1.64-3.17,2.29-4.82,.27-.7,.34-1.37,.61-2.07,.17-.44,.57-.68,.7-1.03,.16-.42,.16-.92,.3-1.27h0Zm10.78-29.27l.16,.36c-.17,.43-.22,.82-.39,1.25-.1,.26-.83,1.08-1.26,.91-.23-.19-.02-.71,.08-.97,.2-.52,.94-1.13,1.41-1.55h0Zm-58.71,50.96c.38,.33,1.52,2.16,1.82,2.74,.51,1,1.36,2.87,1.66,3.87-.84-1.04-1.77-2.03-2.37-3.2-.51-1-1.06-2.29-1.2-3.37l.09-.04Zm7.09-25.96c-.62,.63-3.44,3.12-3.94,3.37l-.17,.08-.04-.08,.33-.59c.41-.84,3.44-3.12,4.31-3.46-.03,.34-.24,.56-.49,.68h0Zm-5.78-6.17c.25-.13,.54-.17,.67,.08,.08,.17-.54,.59-.62,.63l-.17,.08c-.08,.04-.29,.05-.42,0,.17-.29,.29-.66,.54-.79h0Zm-12.1,20.86l-.17,.08c0-.42,0-1.25,.32-1.42,.17-.08,.42,0,.5,.16,.22,.42-.31,1.01-.65,1.18Zm19.99,31.73h-.21c-.84-.41-2.67-.31-3.18-1.31-.08-.17-.09-.37,.04-.54,.21,0,3.19,1.52,3.52,1.77l-.17,.08h0Zm32.85-18.07c3.7-7.45,6.25-15.56,9.21-23.32,3.11-8.16,6.22-16.33,9.33-24.49,.11-.3,.25-.62,.54-.76,.45-.22,.99,.19,1.11,.67s-.06,.98-.23,1.45c-4.18,11.34-8.36,22.69-12.54,34.03-1.73,4.69-3.46,9.39-5.91,13.75-2.88,5.13-6.67,9.51-11.94,12.2-1.16,.59-2.37,1.11-3.66,1.45l-3.42,.91c-.71,.26-1.46,.43-2.21,.39l-4.47,.29c-1.04,.01-2.09-.19-3.14-.39-1.42-.32-2.76-.48-4.18-.8-2.85-.85-5.49-2.33-7.85-4.07-.96-.66-2.77-2.15-3.32-3.02-.76-1.29-1.57-2.45-2.58-3.61-.34-.46-.76-.87-1.06-1.45-.76-1.5-1.49-3.12-2.17-4.66-.51-1-.77-2.12-.9-3.21l-.68-5.84c-.18-1.17,.38-5.02,.82-6.19,.61-1.47,1.19-3.02,1.67-4.52,.81-2.51,4.03-6.88,6.11-8.57,2.2-1.86,4.31-3.67,6.97-5.03,1.5-.76,2.92-.86,4.46-1.33,2.38-.69,4.3-.62,6.68-.06,.38,.12,1.34,.57,1.55,.99,.17,.33,.21,.62-.12,.79s-1.13,.05-1.5-.07c-1.67-.2-3.42,.07-5.09,.29-2.09,.23-3.88,.83-5.62,1.72-3.16,1.61-8.22,5.67-9.91,8.73-1.6,3.23-3,6.25-3.84,9.72-.52,2.26-.12,5.93,.03,8.27,.14,1.71,1.54,4.66,2.35,6.24,.64,1.25,1.31,2.37,2.03,3.57,.72,1.41,4.31,5.35,5.65,6.13,2.02,1.28,5.63,3.42,7.92,3.61l1.38,.24c4.89,.96,11.7,.32,16.19-1.98l1.41-.72-.04-.08s1.5-.76,1.5-.77c4.39-2.2,7.34-6.2,9.47-10.5h0Zm.74,10.35c-.09-.38-.18-1.17,.28-1.3l.33-.17,.25,.08,.04,.08c.18,.34-.57,1.14-.9,1.31h0Z" style="fill: #fdb913;"/>
    <path d="M633.55,265.53l4.68-13.44,5.29-16.53s3.31-11.9-3.97-4.63l-5.29,12.56-8.62,19.71c2.63,.82,5.28,1.58,7.91,2.33h0Z" style="fill: #fdb913;"/>
    <path d="M473.82,244.69c-42.86,7.42-117.85,47.17-140.54,59.58,15.68-.95,55.94-.1,129.19,21.51l34.54-31.88h.01c15.93-14.42,39.86-34.58,64.41-44.03-34.93-12.63-87.07-5.26-87.61-5.18h0Zm-78.55,36.94c-.69,.27-1.84,.04-2.11-.65-.18-.46,.52-.73,.86-.86,.46-.18,2.06-.52,2.51-.03-.12,.71-.57,1.28-1.26,1.54h0Zm30.46-13.01c-1.62,.62-3.26,.85-4.94,.97,.14-.32,.45-.57,.79-.7,3.24-1.24,6.44-2.6,9.86-3.38l.32,.14,.04,.12c-1.99,1.02-4.1,2.1-6.07,2.85Zm40.33-15.34c-.46,.18-1.6-.71-2.08-.93,.3-.25,.72-.54,1.07-.68,.58-.22,1.13-.17,1.73,0-.11,.45-.26,1.43-.72,1.61h0Z" style="fill: #fdb913;"/>
    <path d="M690.25,331.66c-1.74-11.28-5.82-27.48-15.39-40.61-9.76-13.39-24.9-17.67-40.94-22.21-9.02-2.55-18.34-5.19-26.62-9.6-9.52-5.07-19.83-9.95-31.9-9.2-4.59,.29-8.55,1.07-12.1,2.41-24.32,9.14-48.28,29.33-64.19,43.72l-35.78,33.02c70.99,6.63,132.3,30.17,171.48,48.93,35.4,16.94,59.52,33.09,67.19,38.45-1.37-18.19-11.64-84.2-11.75-84.91Zm-184.44-24.71c-.59,.45-1.76,.54-2.21-.05-.3-.4,.3-.84,.6-1.07,.4-.3,1.84-1.07,2.41-.72,.07,.72-.2,1.39-.8,1.84h0Zm25.75-20.85c-1.39,1.04-2.9,1.71-4.49,2.28,.05-.35,.27-.67,.57-.89,2.78-2.08,5.48-4.26,8.56-5.95l.35,.05,.07,.1c-1.64,1.53-3.38,3.14-5.06,4.41h0Zm34.59-25.79c-.4,.3-1.74-.25-2.26-.32,.22-.32,.55-.72,.84-.94,.5-.37,1.04-.47,1.66-.47,.03,.44,.16,1.44-.24,1.73Zm87.34,24.42l-.55-.22c-1.94-1.59-3.68-2.45-6.04-3.4-.97-.39-1.86,.22-2.83-.17-.55-.22-1.19-.64-1.55-.95l.45-.31c2.44,.34,4.77,.96,6.99,1.85,.97,.39,2.08,.84,3.08,1.56,.76,.48,.65,.76,.45,1.64h0Zm19.93,19.31c-1.16-1.92-1.99-3.86-3.09-5.92,.53-.11,1-.08,1.41,.09,.69,.28,1.99,3.86,2.4,4.84l-.72,.99h0Z" style="fill: #fdb913;"/>
    <path d="M785.61,394.6s-.04-.09-.06-.13c-16.76-42.66-45.8-68.45-67.22-82.58-16.91-11.16-31.8-16.98-38.71-19.33,8.32,12.95,12.04,27.94,13.69,38.63,.44,2.83,9.9,63.65,11.64,83.74,49.88,18.81,82.1,38.07,100.4,50.98,11.68,8.24,19.26,14.93,23.64,19.17-7.43-18.47-32.75-69.46-43.38-90.48h0Zm-85.84-76.28c-.12-1.88-.84-3.51-.48-5.3,1.48,.41,1.67,1.64,1.65,2.59,.12,.78,.13,1.88-1.17,2.71h0Zm8.21,43.13c-.56-.55-.83-1.3-.94-2.07l-1.32-8.8c-.25-1.7-.64-3.22-.9-4.92l-.83-5.56c-.05-.31,.19-.82,.28-1.3,.58,.7,.85,1.45,.97,2.22,.73,3.83,1.47,7.67,2.05,11.53l1.04,6.95c.09,.62,.36,1.37-.35,1.95h0Zm6.13,44.46c-.29-.2-.48-.54-.54-.91-.61-3.42-1.35-6.81-1.48-10.32l.2-.29,.12-.02c.64,2.15,1.3,4.43,1.67,6.5,.31,1.71,.23,3.36,.03,5.04h0Z" style="fill: #fdb913;"/>
    <g id="Layer_30" data-name="Layer 30">
      <path d="M575.22,424.52l22.39-59.21c-1.85-.73-3.73-1.46-5.63-2.18l-23.21,61.4h6.45Z" style="fill: #fdb913;"/>
    </g>
    <g id="Layer_17" data-name="Layer 17">
      <polygon points="510.81 578.45 498.16 611.91 503.81 614.04 517.26 578.45 510.81 578.45" style="fill: #fdb913;"/>
    </g>
  </g>
  <g id="Text">
    <path d="M422.42,478.92c-.86,.93-1.86,1.5-2.86,2.29-.86,.64-1.36,1.29-2.36,1.79-4.43,1.93-9.21,2.5-14,2.64-.79,0-.93,.21-1,.93-.14,1.64-.14,3.21-.14,4.86,0,1.14,0,2.29,.07,3.43,0,.71,.14,1.43,.14,2.21,0,.5-.29,1.71-.93,1.71-1.64,0-3.36-.36-5-.36-1.43,0-2.79,.21-4.21,.21-2.78,0-2.21-3.43-2.21-5.21h-.07c0-.86,0-1.71-.07-2.64,0-.57-.07-1.07-.07-1.64,0-.93,.36-1.71,.36-2.64,0-1.29-.14-2.64-.14-3.93,0-1.5,.07-3.07,.07-4.64s-.21-2.93-.21-4.43c0-1.79-.43-3.5-.43-5.28,0-1.07,.43-2.14,.43-3.21s-.36-2.21-.29-3.29v-.14c.07,0,.07-.07,.07-.21,0-1.07-.14-2.21-.14-3.36,0-.71,.14-1.36,.14-2.07,0-.79-.07-1.57-.07-2.29,0-1.14,.29-2.14,.43-3.21,.14-1,.64-1.5,1.64-1.5,2.21-.14,4.5,.07,6.64-.29h.14c1.29-.36,2.5-.5,3.86-.5,.93,0,1.79,.14,2.71,.21,2.79,.21,6.36,.07,9,.79l2.78,.86c.79,.29,1.5,.64,2.14,1.14,.86,.71,1.79,1.36,2.64,2.14,2.36,2.14,3.71,5.07,4.14,8.14,.36,2.14,.71,4.28,.71,6.43,.02,3.56-1.34,8.42-3.91,11.06h0Zm-30.2-27.78c-.21,.29-.36,.57-.36,.93,0,.21,.07,.5,.14,.71,.21-.21,.93-.64,.93-.93s-.5-.56-.71-.71h0Zm.35,21.71h-.07l-.14,.14c-.29,2-.21,4-.21,6,0,.21,.07,.43,.21,.57,.29-.93,.5-1.86,.5-2.86,0-1.21-.14-2.56-.29-3.85h0Zm.43,21.93c-.36,.14-.5,1.07-.5,1.36,0,.21,0,.64,.29,.64,.43,0,.79-.57,.79-1s-.22-.79-.58-1h0Zm24.21-39.07c-.64-.5-1.36-1.07-2.14-1.43l-3-1.07c-1.93-.71-4.5-1-6.57-1-.86,0-1.79,.07-2.64,.14-2.29,.14-4.57,.07-6.93,.5-.64,.07-.93,.36-1,1-.21,1.36-.14,3.29-.14,4.64v7.21c0,2.21,.07,4.5,.07,6.78,0,1.36-.14,2.79-.14,4.14,0,2.86,.21,5.71,.21,8.57,0,2.36-.21,4.64-.21,7,0,.93-.14,2.29,1.14,2.29,.07,0,.14-.07,.21-.07,.29-.21,.43-.43,.43-.79,0-1.07-.14-2.07-.14-3.14,0-1,.07-1.93,.07-2.93v-3.43c0-.71-.07-1.57,.07-2.36,0-.21,.07-.29,.29-.29,.36-.07,.71-.07,1-.07,1.21-.07,2.36-.36,3.5-.36,.36,0,.71,.07,1.07,.07,1.71,0,9.5-1.07,10.78-1.79,2.78-1.57,5.36-3.71,6.93-6.5,1.07-1.79,1.29-4.07,1.29-6.14-.01-4.25-.51-8.04-4.15-10.97h0Zm-.5,19.28c-.57,.5-1.21,.86-1.86,1.29-2.71,2-4.14,2.86-7.64,2.86-.86,0-1.64,.14-2.43,.21l-8.43,.64c-.14-.29-.07-5.36-.07-6.07,0-4.36-.07-8.71-.07-13.07,0-.93-.14-1.93-.14-2.93,0-.5,.07-3.57,.36-3.71,.29-.21,.64-.21,1.07-.21,1.43-.07,2.93-.21,4.36-.43h.43c.36,0,.71,0,1,.07,4.93,.21,9.78,.21,13.78,3.64,.21,.21,.43,.36,.57,.57,.64,.93,1.36,1.93,1.57,3,.07,.64,.36,1.29,.43,1.93,.29,1.43,.36,3,.36,4.5,0,3.14-1.15,5.5-3.29,7.71h0Zm-17.5-10.56c0-.57,.07-1.79-.43-2.14-.14,.07-.21,.07-.21,.21,0,1.29,0,2.5,.21,3.71h.14c.21-.36,.29-.93,.29-1.43v-.35h0Zm5.86-5.57c-.93,0-2.14-.07-3.07,.07-.5,.07-.5,.43-.5,.86,0,2.64,.14,5.28,.21,7.93,0,2,.07,4,.07,6,0,.29-.07,.57,0,.86,.07,.5,1,.5,1.43,.5,.86,0,1.71-.14,2.57-.14,2.07,0,4.78-1.36,6-3,.5-.57,.93-1.14,1.36-1.71,.43-.64,.71-1.36,.86-2.07,.14-.79,.21-1.64,.21-2.5,0-4.95-4.93-6.8-9.14-6.8h0Zm2.64,17.99l-.07-.07c-.64-.07-1.14,0-1.79,0-.57,0-1.21-.21-1.79-.21-.43,0-.79,.14-1,.5,.64,.29,1.14,.43,1.86,.43,.93,0,1.79-.29,2.64-.5l.15-.15h0Zm-.28-21.21h-.21c-.29,0-.71,.07-.71,.5,0,.21,.21,.36,.43,.36h.21c.64,0,.86-.07,1-.71-.22-.15-.44-.15-.72-.15Zm10.07,10.57l.07,.5v.57c0,1.36-.21,2.71-.43,4.07,.5,0,.93-2.14,.93-2.64s-.07-2.21-.57-2.5Zm2.07-11.78c.07,0,0-.07,0-.07-.07-.07-.14-.14-.21-.14-.36,0-.57,.29-.57,.57,0,.36,.36,.5,.71,.57l.07-.93Zm1.64,21.56c-.29,.36-.43,.79-.43,1.21,0,.36,.07,.64,.14,.93,.29-.21,1.21-.79,1.21-1.21,0-.35-.64-.71-.92-.93Z" style="fill: #a30c33;"/>
    <path d="M475.69,498.92c-1.57,0-3.14,.14-4.71,.14-1.79,0-3.43-.36-4.5-1.93-1.43-2.36-3.28-4.5-5.07-6.64-.93-1.14-2-2.21-2.93-3.5-.43-.64-1-1.21-1.64-1.57-.29-.14-.5-.21-.79-.21-1.14,0-2.36-.07-3.5,.07,0,3.21-.14,6.43-.14,9.64,0,.71,.14,1.43,.14,2.14,0,.79-.79,1.79-1.64,1.79-.71,0-1.36-.07-2.07-.07-1.86,0-3.71,.21-5.64,.21h-.93c-1.36-.07-1.5-1.07-1.64-2.21-.14-.64-.21-1.29-.21-1.93,0-1,.14-2,.14-3,0-1.43-.36-2.86-.36-4.28v-5.86c0-1.14,.36-2.29,.36-3.5,0-1.29-.36-2.57-.36-3.86,0-1.5,.21-3,.21-4.5,0-.93-.21-1.79-.21-2.71-.21-3.43-.07-6.86-.07-10.28-.07-1.29-.21-2.5-.21-3.71,0-.86,0-1.71,.07-2.57,0-.57,.43-.93,1-1.14,1.79-.57,4-.36,5.93-.43,.5-.07,1-.14,1.5-.14,3.5,0,7,.14,10.5,.14,.86,0,1.57,.14,2.43,.43,.93,.29,1.93,.43,2.93,.43,1.79,0,3.36,.64,4.78,1.79l.57,.43c4.86,2.93,6,9,6,14.28,0,1-.07,1.93-.07,2.93-.07,1.5-1.64,6.93-2.57,8.07-1.21,1.36-2.43,2.93-3.78,4.14-.07,.07-.29,.21-.29,.36,0,.43,10,13.57,10.93,14.78,.21,.29,.36,.57,.36,.93-.02,1.91-3.31,1.34-4.52,1.34h0Zm-32.71-19.78c0-.64-.21-1.21-.21-1.79v-1.21c0-.5-.07-.93-.14-1.36h-.07c-.21,1.21-.21,4.64-.21,6,0,.43,.07,.93,.07,1.36h.07c.57,0,.5-1.86,.5-2.21v-.79h-.01Zm.43-27.07c-.36,0-.36,.36-.36,.64,.07,.29,.07,1,.43,1,.29,0,.43-.29,.43-.57s-.14-1.07-.5-1.07Zm28.14,40.21c-3.07-4.14-6.5-8.14-9.78-12.14l-.07-.21c.5-.57,1.36-.79,1.93-1.14,1.21-.71,2.29-1.71,3.29-2.71,.57-.5,1-1.07,1.29-1.71,2.21-4,2.5-6.43,2.5-11,0-1-.64-2.14-1-3.21-.29-.64-.57-1.36-1.14-1.86-.71-.79-1.5-1.57-2.29-2.29-2.29-2.14-9.35-2.64-12.43-2.64-.93,0-8.07,.14-8.43,.71-.21,.36-.43,.86-.43,1.21v6.78c0,.57,.07,1.14,.07,1.64,.07,1.36,.07,2.79,.07,4.14,0,.64-.07,1.29-.07,1.93,0,2.71,.14,5.36,.21,8.07,.07,3.93,.14,7.93,.14,11.85,.07,.93-.29,4.79,.86,4.79,.57,0,.86-.29,.86-.86,.07-2.07-.07-4.14-.07-6.21,0-.86,.07-1.71,.07-2.57,0-1.14-.21-2.21-.21-3.36,0-.29-.07-1.36,.29-1.36,1.36,0,2.71,.29,4.14,.29,1.71,0,3.5-.07,5.28-.14,1,0,2.07-.14,3.07-.14,.21,0,.29,0,.43,.14,1.71,2,3.29,4.07,4.93,6.14,1.43,1.71,2.93,3.5,4.21,5.36l1.71,2.57c.29,.29,.86,.86,1.29,.86,.14,0,.57-.14,.57-.36-.01-.65-.86-2-1.29-2.57h0Zm-4.71-19.29c-.29,.64-.79,1.21-1.29,1.71-2.21,1.93-3.43,3.14-6.43,3.86-.93,.21-1.86,.14-2.86,.14-1.14,0-2.29,.07-3.36,.07v.07c-1.43,0-4.28,.07-5.5-.14-.36-.07-.57-.29-.64-.64-.07-.79-.07-1.79-.07-2.57s.07-1.64,.07-2.43c0-1.36,0-2.71-.07-4.14-.14-2.57-.07-5.14-.14-7.71,0-1.43-.21-2.86-.21-4.28v-1.29l.14-.21c.29-.21,.64-.29,1-.36,2.07-.07,4.14-.14,6.21-.14,2.57,0,8.35,.57,10.64,1.93,1,.57,2.07,1.43,3,2.29l.21,.36c.43,.93,.79,2,1.14,3,.36,.86,.43,1.79,.43,2.71,0,3.2-.85,4.99-2.27,7.77h0Zm-18.14-9.06c-.07,.29-.21,.64-.21,.93s.21,.43,.5,.43c.21,0,.43-.14,.43-.36-.01-.5-.37-.86-.72-1Zm1.21,29.85c-.21,.21-.5,.36-.5,.64,0,.07,.5,1.57,.57,1.86l.07-.07c.07-.36,.14-.71,.14-1.07,0-.44-.14-.94-.28-1.36h0Zm11.93-32.28c-.57-.64-.79-1.14-1.71-1.43-1.64-.57-3.28-1.07-5.07-1.07-.86,0-1.86,.07-2.78,.21-.57,.14-.43,.36-.43,.86,0,3.93,.14,7.86,.14,11.85,.14,2.43-.43,2.79,2.36,2.79,.71,0,1.36-.07,2.07-.14,.86-.07,1.71-.36,2.5-.93l1.86-1.29c.5-.29,.93-.71,1.21-1.14,1.36-1.64,1.86-2.36,1.86-4.64,0-2.79-.44-3-2.01-5.07h0Zm-1.29-10.14c-.86-.36-3.79-.21-4.93-.21-.29,0-.5,.07-.57,.29,.07,.21,.21,.29,.43,.29,.86,0,1.71,.21,2.57,.21s1.71-.21,2.5-.5v-.08h0Zm.93,24.28l-1.86,.71c.14,.14,.36,.29,.57,.29,.57,0,1.07-.5,1.36-.93l-.07-.07Zm4.86,16.92c0-.36,0-.5-.14-.79l-2-3c-.14-.29-.36-.5-.71-.57,0,.14-.07,.21-.07,.29,0,1.14,2.14,3.29,2.86,4.07h.06Zm6.49-27.56c-.29,.29-.43,1-.43,1.43,0,.21,.07,.43,.07,.64,0,.43-.14,.86-.14,1.29,0,.93-.07,1.57-.29,2.5,1.29-.79,1.14-3.36,1.14-4.71,.01-.44-.13-.8-.35-1.15h0Zm3.22,30.56c-.21,0-.36,.14-.36,.36,0,.29,.29,.57,.57,.57,.21,0,.43-.14,.43-.36,0-.28-.43-.57-.64-.57Z" style="fill: #a30c33;"/>
    <path d="M542.6,478.07c-.07,.36-.43,1.21-.43,1.36,0,.86-.93,3.29-1.43,4-.71,1.07-1.21,1.93-1.57,3.14l-.21,.5c-2.29,3.43-5.21,6.28-8.78,8.21-1.14,.64-4.36,2.57-5.36,2.79-2.14,.36-4.43,.86-6.57,.86-.93,0-2.07,0-2.93-.21-1.86-.36-3.64-.86-5.43-1.29-5.28-1.29-7.93-3.43-11.93-6.86-.86-.79-1.64-1.5-2.21-2.57-.36-.71-.93-1.29-1.36-1.93-1.07-1.71-1.21-3.86-1.93-5.71-.21-.64-.79-4.57-.79-5.28,0-1.79,.29-3.43,.43-5.14,0-1,.64-1.71,.93-2.57,1.07-3.14,2.43-7.28,4.93-9.64l3.64-3.28c.29-.29,.5-.64,.86-.93,1-.71,2.07-1.43,3.21-2,.71-.36,1.5-.5,2.21-.79,2.14-.86,3.71-1.71,6.14-1.86,1.14-.07,2.29-.07,3.5-.07,.64,0,1.36,.07,2,.07,.43,0,.93-.07,1.36-.07,.93,0,2,.14,2.93,.43,1.64,.43,3.29,.71,4.86,1.29,1.07,.36,2,.93,3,1.5,1.64,.93,2.93,2,4.07,3.57,.14,.14,.21,.29,.36,.36,1.21,1.07,1.93,2.43,2.78,3.71,.57,.86,.93,1.79,1.36,2.64,1.14,2.21,2,3.64,2.36,6.14,.14,1.07,.5,2.36,.5,3.36,0,1.62-.29,4.62-.5,6.27h0Zm-46.92-5.5l-.14-.07c-.36,.71-.64,1.43-.64,2.21,0,.93-.21,3.64,.64,4.14,.07-.21,.14-.43,.14-.57,0-.79-.21-1.64-.21-2.43,0-1,.29-2,.29-3-.01-.14-.01-.21-.08-.28h0Zm2-11.14c-.21,0-.64,.93-.64,1s.14,.43,.21,.57c.5,0,.93-.5,.93-1,0-.29-.21-.57-.5-.57h0Zm38.56,6.92c-.29-.93-.43-1.86-.79-2.71-.93-2.29-1.64-3.79-3.57-5.43l-1.5-1.21c-3-2.43-3.86-3.29-7.71-4.29-1.21-.36-2.57-1-3.86-1-.79,0-1.5,.07-2.21,.14-2.43,.14-4.43,.07-6.71,1.29-1.5,.86-2.36,1.36-3.79,2.29-2.14,1.43-3.71,3.5-5.36,5.43-1.86,2.29-3.07,5.14-3.29,8.07,0,.5-.14,1.07-.14,1.57,0,3,.21,6.14,1.07,9,.5,1.86,2.36,3.79,3.64,5.14,3.93,4.21,9.5,6.86,15.28,6.86,2.07,0,4.21-.43,6.14-1,.93-.21,1.5-.93,2.57-1.21,.86-.21,1.5-.57,2.21-1,1.07-.64,2.14-1.29,3.14-2.07,2.93-2.36,5.36-8.28,5.64-11.93,.07-.86,.14-1.64,.14-2.5,.03-2.01-.26-3.58-.9-5.44h0Zm-7.85,20.36c-1.57,.86-3.07,1.64-4.71,2.14-2,.64-2.64,1.21-4.86,1.21-.64,0-1.29,.07-1.93,.07-.93,0-4.71-.79-5.57-1.14-1.29-.57-2.57-1.07-3.86-1.79-1.93-1.07-3.36-3-5-4.5-.79-.71-2.5-3.28-2.5-4.43,0-1.93-1-2.64-1-4.93,0-2.71-.29-5.78,1.07-8.21,.43-.71,.71-1.57,1.21-2.29,.5-.71,1.14-1.29,1.57-2.07,1.21-2,3.71-3.93,5.64-5.07,.14-.07,.29-.14,.36-.29,.93-.79,1.79-1.14,2.93-1.57,2-.71,4.21-.64,6.36-.64,.79,0,1.5,.21,2.29,.36,1.43,.29,3.14,.57,4.43,1.36,2.71,1.5,5.5,3.36,7.5,5.71,1.14,1.36,1.79,3.36,2.29,5.07,.57,1.64,1.29,3.28,1.29,5.07-.02,5.51-2.3,13.29-7.51,15.94h0Zm.5-20.86c-.71-1.79-2.07-3.21-3.43-4.57-.93-.93-5.36-2.29-6.71-2.29h-2.29c-2.29-.07-2.86,.86-4.28,1-1.14,.14-2.36,1.29-3.29,1.93-.36,.29-.71,.43-1,.71-1.07,.86-1.86,2.29-2.5,3.5-1.07,1.86-1.79,5.36-1.79,7.5,0,1.43,.93,3.07,1.5,4.36,.86,1.93,5.28,5.36,7.28,6.07,1.29,.5,2.64,.64,4,.64,3.14,0,6.93-1,9.43-3,.71-.5,1-1.36,1.64-2,.29-.36,.71-.57,.93-1,1.14-2,1.79-5.21,1.79-7.57,0-1.49-.78-3.78-1.28-5.28h0Zm-23.28,17.28c-.43-.64-.86-1.29-1.57-1.71,0,.14-.07,.29-.07,.36,0,.64,.43,1.36,1,1.64l.64-.29Zm6.57-26.49h-.57c-.36,0-.43,.29-.71,.29-.64,0-2.57,.93-2.57,1.5,0,.14,.07,.29,.29,.29s.5-.29,.64-.43c.93-.93,3.14-.64,3.14-1.43-.01-.08-.15-.22-.22-.22h0Zm7.14-7.43c-.57-.14-1.14-.14-1.64-.14-1.14,0-2.29,.14-3.43,.43l-.14,.21c.21,.07,.57,.14,.86,.14,.5,0,.79-.43,1.29-.43,1.21,0,2.14,.07,3.29,.43h.29c-.09-.42-.09-.56-.52-.64h0Zm3.07,44.64c-.29-.14-.57-.21-.86-.21-.5,0-.79,.43-1.36,.43-1.14,0-2.07,0-3.21-.43h-.29c.07,.43,0,.64,.5,.71s1.07,.14,1.64,.14c1.14,0,2.21-.21,3.36-.43l.22-.21Zm7.71-10.93c-.64,.29-1.93,1.14-2.14,1.86,1.29,0,3.86-2.14,4-3.5-.5,.43-1.36,1.43-1.86,1.64Zm2.14-28.64c-.36-.36-1.57-1.71-1.93-1.71-.21,0-.43,.07-.64,.21,.86,.71,1.57,1.43,2.43,2.07l.14-.57Zm1.29,13.79c-.57,.36-.64,.36-.64,1.07v.29c0,.29,.07,.64,.14,.93,.21-.21,.93-1,.93-1.21,0-.3-.15-.94-.43-1.08h0Z" style="fill: #a30c33;"/>
    <path d="M588.58,457.64v1c-.07,.71-.71,1.29-1.36,1.43-.36,0-.64,.07-1,.07-.64,0-1.29,0-1.86,.29-.14,.07-.36,.07-.64,0-.79-.14-1.64-.14-2.71,0h-3.78c-.07,0-.14,.07-.21,.07h-.14l-.21,.07-.07,.21c-.21,1.29-.29,2.57-.29,4.14v.14c0,.29,.07,.57,.07,.79l.07,1.29c.07,.93,.14,1.86,.14,2.79v2.36l-.07,.93v1.86c0,1.36,0,2.71,.29,4.14,.07,.36,.07,.71-.07,1-.36,1.5-.21,2.93-.14,4.36l.07,.43c.07,1.29,.07,2.64,0,4v3.21c0,.79,0,1.64-.07,2.43,0,1.07-.14,2.14-.43,3.21-.07,.36-.21,.57-.43,.64-.21,.07-.43,.21-.57,.36-.21,.29-.43,.43-.86,.43-.07,0-.21,0-.36-.07h-.5c-.21,0-.5-.07-.71-.07l-2.07-.07-2.43-.14c-.5,0-1-.07-1.43-.14-.64-.07-1.21-.36-1.71-1v-.07l-.21-.93c-.07-.43-.14-.86-.14-1.29,.14-1.43-.14-2.64-.21-3.93,0-1.14,.21-2.29,.07-3.43-.14-.86-.21-1.86,.07-3,.07-.5,.07-1,0-1.5v-.29l-.14-2.21-.14-2.93c0-.36,0-.86,.14-1.36,.21-1.14,.14-2.29,.14-3.36-.07-.36-.07-.71-.07-1.07v-4c0-.71-.07-1.93-.07-2.64v-.21l-.07-1.5c0-.71-.07-1.5-.07-2.29-.07-.71-.21-1.43-1.29-1.43-.07,0-.21,.07-.29,.07-.64,0-1.36,.07-2,.07-.93,0-1.86-.07-2.71-.14h-.64c-.29,0-.5-.07-.71-.07-.36,0-.79-.07-1.14-.07h-.14c-.57,0-1.07,.07-1.57,.14-.79,.07-1.43-.5-1.5-1.29,0-.29-.07-.64-.07-.93-.07-.86-.07-1.29-.21-2.14-.21-1.07-.14-2.21-.14-3.36v-1.29c0-.29,.21-.71,.36-1,.43-.86,1.21-1.21,2.29-1.21h.21c.43,0,.93,0,1.36,.07,.57,0,1.21,.07,1.79,.07h.07c.36,0,.71-.07,1.07-.07,.29,0,.57-.07,.86-.07h2.86l.79,.07h2.36c.64,0,1.21,0,1.71-.07,1-.21,2.14-.21,3.5-.07,.57,.07,1.14,.07,1.64,.07,.36,0,.71,0,1.07,.07,.5,0,.93,0,1.43,.07,.71,.07,1.5,.14,2.29,.14h.21c.86,0,1.71-.07,2.5-.14h1.14l.57-.07h1.07c1.07-.07,2.07-.07,3.14-.07,.29,0,.64,.07,1,.07l.29,.07c.43,0,.64,.29,.79,.71v.07c.21,.71,.36,1.5,.36,2.21,0,1.8-.07,3.59-.14,5.37h0Zm-34.71-6.93c-.29,.36-.36,.57-.29,.86,0,.21,.14,.29,.36,.21,.14-.07,.43-.43,.36-.64,0-.28-.14-.43-.43-.43h0Zm30,3.07c-.71-.07-1.79-.07-2.93-.07-.86,0-1.71,0-2.43,.07-1.43,.07-2.57,.07-3.64,.07h-2.21c-.29-.07-.57-.07-.86-.07-.36-.07-.71-.07-1.14-.07h-2.5c-.29,0-.71,.07-1.07,.07-.5,.07-.93,.07-1.36,.07h-1.5c-.43-.07-.93-.07-1.36-.07h-1.71c-.64,0-2.43,0-3.5-.14-.21-.07-.57-.07-1.14,0-.64,0-.79,.29-.79,.64-.07,.79,.14,1,.64,1.07,.79,.07,2.21,.07,3.07,.07h3.21l6.71,.14v7.07c.07,.21,.07,.36,.07,.57,0,.5,.07,1,.14,1.57,.07,.93,.21,2,0,3v.57l.07,.57c.07,.43,.07,.93,.07,1.36,0,.29-.07,.64-.07,1-.07,.29-.07,.64-.07,.93v3.93c0,.29,0,.57,.07,.86v1.79c0,.36-.07,.64-.07,.93,.07,1,.07,2,.07,3.07l.07,1.57c0,.07-.07,.14-.07,.29v1.29c-.07,.86-.07,2.79-.07,3.64v5.28c0,.5,1.71,.64,1.79,.07,.07-.71,.07-2.29,.07-3.28,0-.36-.07-.71-.07-1.07,0-.5-.07-1,0-1.5v-.14c0-1.14,.07-3.36-.14-4.5-.07-.21-.07-.5,0-.71,.21-.86,.21-1.71,.21-2.64v-.43c0-2,0-4-.07-6v-1.87c0-.14,0-.29-.07-.5v-.86c-.07-.43-.07-.86-.07-1.29,0-.5,.07-1.07,.07-1.64,.07-.57,.14-1.14,.07-1.79,0-1.29-.07-2.64-.21-3.93v-.07c-.07-.57,.07-1.21,.07-1.79v-5.36l5.21-.21c.79,0,1.5,.07,2.29,.07h2.07c.29,0,.57-.07,.86,0h1.14c.36,.07,.71,.07,1,.07,.64,0,.86-.14,.86-.79,.07-.76-.14-.83-.78-.91h0Zm-13.29-1.99c-.21-.14-.36-.29-.57-.29-.93-.07-1.79-.14-2.71-.14-.64,0-1.29,.07-1.93,.14-.43,0-.5,.07-.5,.57h3c.14,0,.21-.07,.29-.07,.43-.29,.93-.21,1.43-.14h.93l.06-.07h0Zm-3.71,15.35c-.29,.79-.07,1.57-.14,2.43,.64-.29,.71-.79,.71-1.14,.07-.43,.07-1.01-.57-1.29h0Zm.79,13.07c0-.36-.07-.71-.29-1.07-.07,.21-.21,.43-.21,.57v2.57c0,.79,.07,1.5,.07,2.29v4.07c0,.36,.07,.71,.29,1,.36-.21,.29-.57,.29-.86v-3.21c-.01-1.79-.08-3.58-.15-5.36h0Zm5.85-20.43c-.21,.5-.29,.86-.29,1.43,0,1.29,.07,2.5,.07,3.79l.14,1c0,.07,.07,.14,.29,.36v-1.07c0-.29-.07-.57-.07-.79,0-1.07,.07-2.14,.07-3.21,0-.58-.07-1.08-.21-1.51h0Zm.64,36.07c-.36,0-.29,.43-.29,.71,0,.07,0,.21,.07,.36,.07,.07,.21,.14,.29,.14,.07-.07,.21-.14,.21-.21,.07-.14,.07-.21,.07-.36-.06-.21,.08-.64-.35-.64h0Zm11.86-38.14c-.14-.14-.29,.07-.43,.14-.07,.07-.07,.14-.14,.14-.14,.21-.21,.36-.07,.57,.07,.21,.29,.14,.43,.14,.29-.07,.36-.29,.43-.57,0-.13-.08-.27-.22-.42h0Z" style="fill: #a30c33;"/>
    <path d="M733.67,457.64v1c-.07,.71-.71,1.29-1.36,1.43-.36,0-.64,.07-1,.07-.64,0-1.29,0-1.86,.29-.14,.07-.36,.07-.64,0-.79-.14-1.64-.14-2.71,0h-3.79c-.07,0-.14,.07-.21,.07h-.14l-.21,.07-.07,.21c-.21,1.29-.29,2.57-.29,4.14v.14c0,.29,.07,.57,.07,.79l.07,1.29c.07,.93,.14,1.86,.14,2.79v2.36l-.07,.93v1.86c0,1.36,0,2.71,.29,4.14,.07,.36,.07,.71-.07,1-.36,1.5-.21,2.93-.14,4.36l.07,.43c.07,1.29,.07,2.64,0,4v3.21c0,.79,0,1.64-.07,2.43,0,1.07-.14,2.14-.43,3.21-.07,.36-.21,.57-.43,.64-.21,.07-.43,.21-.57,.36-.21,.29-.43,.43-.86,.43-.07,0-.21,0-.36-.07h-.5c-.21,0-.5-.07-.71-.07l-2.07-.07-2.43-.14c-.5,0-1-.07-1.43-.14-.64-.07-1.21-.36-1.71-1v-.07l-.22-.95c-.07-.43-.14-.86-.14-1.29,.14-1.43-.14-2.64-.21-3.93,0-1.14,.21-2.29,.07-3.43-.14-.86-.21-1.86,.07-3,.07-.5,.07-1,0-1.5v-.29l-.14-2.21-.14-2.93c0-.36,0-.86,.14-1.36,.21-1.14,.14-2.29,.14-3.36-.07-.36-.07-.71-.07-1.07v-4c0-.71-.07-1.93-.07-2.64v-.21l-.07-1.5c0-.71-.07-1.5-.07-2.29-.07-.71-.21-1.43-1.29-1.43-.07,0-.21,.07-.29,.07-.64,0-1.36,.07-2,.07-.93,0-1.86-.07-2.71-.14h-.64c-.29,0-.5-.07-.71-.07-.36,0-.79-.07-1.14-.07h-.14c-.57,0-1.07,.07-1.57,.14-.79,.07-1.43-.5-1.5-1.29,0-.29-.07-.64-.07-.93-.07-.86-.07-1.29-.21-2.14-.21-1.07-.14-2.21-.14-3.36v-1.29c0-.29,.21-.71,.36-1,.43-.86,1.21-1.21,2.29-1.21h.21c.43,0,.93,0,1.36,.07,.57,0,1.21,.07,1.79,.07h.07c.36,0,.71-.07,1.07-.07,.29,0,.57-.07,.86-.07h2.86l.79,.07h2.36c.64,0,1.21,0,1.71-.07,1-.21,2.14-.21,3.5-.07,.57,.07,1.14,.07,1.64,.07,.36,0,.71,0,1.07,.07,.5,0,.93,0,1.43,.07,.71,.07,1.5,.14,2.29,.14h.21c.86,0,1.71-.07,2.5-.14h1.14l.57-.07h1.07c1.07-.07,2.07-.07,3.14-.07,.29,0,.64,.07,1,.07l.29,.07c.43,0,.64,.29,.79,.71v.07c.21,.71,.36,1.5,.36,2.21,.02,1.82-.05,3.61-.12,5.39h0Zm-34.7-6.93c-.29,.36-.36,.57-.29,.86,0,.21,.14,.29,.36,.21,.14-.07,.43-.43,.36-.64,0-.28-.15-.43-.43-.43h0Zm29.99,3.07c-.71-.07-1.79-.07-2.93-.07-.86,0-1.71,0-2.43,.07-1.43,.07-2.57,.07-3.64,.07h-2.21c-.29-.07-.57-.07-.86-.07-.36-.07-.71-.07-1.14-.07h-2.5c-.29,0-.71,.07-1.07,.07-.5,.07-.93,.07-1.36,.07h-1.5c-.43-.07-.93-.07-1.36-.07h-1.71c-.64,0-2.43,0-3.5-.14-.21-.07-.57-.07-1.14,0-.64,0-.79,.29-.79,.64-.07,.79,.14,1,.64,1.07,.79,.07,2.21,.07,3.07,.07h3.21l6.71,.14v7.07c.07,.21,.07,.36,.07,.57,0,.5,.07,1,.14,1.57,.07,.93,.21,2,0,3v.57l.07,.57c.07,.43,.07,.93,.07,1.36,0,.29-.07,.64-.07,1-.07,.29-.07,.64-.07,.93v3.93c0,.29,0,.57,.07,.86v1.79c0,.36-.07,.64-.07,.93,.07,1,.07,2,.07,3.07l.07,1.57c0,.07-.07,.14-.07,.29v1.29c-.07,.86-.07,2.79-.07,3.64v5.28c0,.5,1.71,.64,1.79,.07,.07-.71,.07-2.29,.07-3.28,0-.36-.07-.71-.07-1.07,0-.5-.07-1,0-1.5v-.14c0-1.14,.07-3.36-.14-4.5-.07-.21-.07-.5,0-.71,.21-.86,.21-1.71,.21-2.64v-.43c0-2,0-4-.07-6v-1.87c0-.14,0-.29-.07-.5v-.86c-.07-.43-.07-.86-.07-1.29,0-.5,.07-1.07,.07-1.64,.07-.57,.14-1.14,.07-1.79,0-1.29-.07-2.64-.21-3.93v-.07c-.07-.57,.07-1.21,.07-1.79v-5.36l5.21-.21c.79,0,1.5,.07,2.29,.07h2.07c.29,0,.57-.07,.86,0h1.14c.36,.07,.71,.07,1,.07,.64,0,.86-.14,.86-.79,.08-.76-.14-.83-.78-.91h0Zm-13.28-1.99c-.21-.14-.36-.29-.57-.29-.93-.07-1.79-.14-2.71-.14-.64,0-1.29,.07-1.93,.14-.43,0-.5,.07-.5,.57h3c.14,0,.21-.07,.29-.07,.43-.29,.93-.21,1.43-.14h.93l.06-.07h0Zm-3.72,15.35c-.29,.79-.07,1.57-.14,2.43,.64-.29,.71-.79,.71-1.14,.07-.43,.07-1.01-.57-1.29h0Zm.79,13.07c0-.36-.07-.71-.29-1.07-.07,.21-.21,.43-.21,.57v2.57c0,.79,.07,1.5,.07,2.29v4.07c0,.36,.07,.71,.29,1,.36-.21,.29-.57,.29-.86v-3.21c0-1.79-.08-3.58-.15-5.36h0Zm5.85-20.43c-.21,.5-.29,.86-.29,1.43,0,1.29,.07,2.5,.07,3.79l.14,1c0,.07,.07,.14,.29,.36v-1.07c0-.29-.07-.57-.07-.79,0-1.07,.07-2.14,.07-3.21,.01-.58-.06-1.08-.21-1.51h0Zm.65,36.07c-.36,0-.29,.43-.29,.71,0,.07,0,.21,.07,.36,.07,.07,.21,.14,.29,.14,.07-.07,.21-.14,.21-.21,.07-.14,.07-.21,.07-.36-.07-.21,.08-.64-.35-.64h0Zm11.85-38.14c-.14-.14-.29,.07-.43,.14-.07,.07-.07,.14-.14,.14-.14,.21-.21,.36-.07,.57,.07,.21,.29,.14,.43,.14,.29-.07,.36-.29,.43-.57,0-.13-.08-.27-.22-.42h0Z" style="fill: #a30c33;"/>
    <path d="M412.68,549.77l-.19,.23c-1.4,1.03-1.91,1.26-3.59,1.63-.56,.09-1.03,.28-1.63,.28-.98,0-1.96-.19-2.98-.19-1.4,0-3.03-.47-4.38-.79-3.82-.84-8.34-3.92-9.84-7.6l-1.03-2.47c-.61-1.73-.65-3.82-.65-5.64,0-8.72,7.83-16.04,16.41-16.04,2.42,0,5.13,.65,7.18,2,.98,.65,.7,2.24,.7,3.26h.05v.89c0,.65,.14,1.58-.75,1.58-.47,0-1.12-.47-1.49-.75-1.45-1.03-3.64-1.4-5.36-1.4-6.95,0-10.81,4.29-10.81,11.09,0,3.68,2.7,8.2,6.06,9.74,.7,.28,1.35,.65,2.1,.75,1.12,.19,2.47,.14,3.64,.14,1.82,0,3.87-1.44,5.41-1.44,1.35,0,1.31,2.14,1.31,3.12-.02,.54-.11,1.09-.16,1.61h0Z" style="fill: #a30c33;"/>
    <path d="M456.87,545.43c-.75,1.54-2.05,2.1-3.22,3.22-.19,.42-.65,.65-1.03,.89-.56,.28-1.07,.56-1.54,.89-1.35,.84-5.27,1.49-6.81,1.4v.05h-.14c-.56,0-1.21-.14-1.82-.19-.23,.09-.47,.09-.75,.09-1.26,0-1.49-.19-2.61-.42-1.68-.37-3.5-.56-4.85-1.68-.23-.19-.47-.33-.7-.47-.65-.37-1.21-.89-1.68-1.45-.33-.37-.7-.65-1.07-.98-2.19-2.1-3.5-5.64-3.92-8.58-.09-.65-.37-1.4-.37-2.05,0-5.41,2.84-11.05,7.55-13.89,3.68-2.24,5.97-3.31,10.26-3.31,.89,0,1.91,.14,2.75,.42h.14c.75,0,1.49,.61,2.19,.79,.56,.14,.89,.51,1.35,.65,1.07,.33,2.56,1.12,3.31,1.96l1.77,2.14,.14,.19c1.77,2.24,4.15,6.15,4.15,9.04,.02,6.12-.54,6.12-3.1,11.29h0Zm-5.92-17.9c-.28-.19-.33-.75-.7-.98-.98-.7-2.19-1.21-3.26-1.72-1.03-.47-2.14-.61-3.22-.61-2.61,0-4.85,.56-6.9,2.24-.84,.7-1.63,1.49-2.28,2.33-.43,.56-.45,.58-.05,.05-.42,.19-.47,.84-.65,1.17-.98,1.82-1.68,2.56-1.77,4.8-.05,.61-.05,1.31-.05,1.91,0,2.14,1.49,5.04,2.84,6.62,.47,.56,1.44,1.07,2.05,1.63,.79,.7,6.34,1.54,7.65,1.54,1.07,0,2.42-.42,3.5-.65,.42-.09,.61-.14,.75-.56,.14-.37,.93-.47,1.21-.7,.89-.65,1.72-1.26,2.33-2.24,.14-.33,.47-.61,.42-.98,.42-1.03,1.58-2.24,1.58-3.45,0-2.94-.89-8.53-3.45-10.4h0Z" style="fill: #a30c33;"/>
    <path d="M502.88,551.86c-.51,0-.98,.28-1.4,.28-.19,0-.33-.19-.51-.23-.84-.33-.93-.47-1.07-1.35-.09-.75-.19-1.44-.23-2.14-.05-.51-.42-.89-.42-1.35-.14-2.05-.09-4.43-.47-6.48-.19-1.03-.28-1.82-.28-2.89,0-1.87-.37-3.82-.75-5.64h-.14c-1.91,3.54-3.59,7.18-5.41,10.72-.56,1.03-1.03,2.19-1.72,3.12-.19,.19-.37,.42-.7,.42-1.91,0-6.71-12.07-8.44-14.03l-.14,.05c-.42,2.56-1.07,8.3-1.07,10.82,0,1.12-.28,2.28-.42,3.45s-.05,2.24-.05,3.4c0,2.1-1.58,1.86-3.12,1.86-1.12,0-2.1,.14-2.1-1.35,0-4.06,.75-8.11,.89-12.17,.09-1.58,.14-3.26,.14-4.85,0-1.26,.28-2.47,.42-3.68,.42-3.17,.51-6.48,.79-9.7,.09-1.03,1.31-1.26,2.19-1.26,.47,0,1.17,.19,1.49,.61,.89,1.21,1.77,2.52,2.19,4.01,.56,2,5.69,11.05,7.09,12.63,.75-.79,4.2-8.25,4.85-9.56,.28-.51,.65-.93,.93-1.45,.98-1.77,1.86-3.59,2.84-5.36,.51-.84,1.26-.93,2.14-.93s1.54,0,1.63,1.03c.14,1.4,.37,2.75,.56,4.1,.37,2.24,.42,4.48,.7,6.71,.19,1.72,.56,3.31,.56,5.13s.47,4.47,.61,6.43c.14,1.63,.09,3.22,.37,4.85,.19,1.21,.42,2.56,.42,3.82s-1.49,.98-2.37,.98h0Z" style="fill: #a30c33;"/>
    <path d="M549.53,551.86c-.51,0-.98,.28-1.4,.28-.19,0-.33-.19-.51-.23-.84-.33-.93-.47-1.07-1.35-.09-.75-.19-1.44-.23-2.14-.05-.51-.42-.89-.42-1.35-.14-2.05-.09-4.43-.47-6.48-.19-1.03-.28-1.82-.28-2.89,0-1.87-.37-3.82-.75-5.64h-.14c-1.91,3.54-3.59,7.18-5.41,10.72-.56,1.03-1.03,2.19-1.72,3.12-.19,.19-.37,.42-.7,.42-1.91,0-6.71-12.07-8.44-14.03l-.14,.05c-.42,2.56-1.07,8.3-1.07,10.82,0,1.12-.28,2.28-.42,3.45s-.05,2.24-.05,3.4c0,2.1-1.58,1.86-3.12,1.86-1.12,0-2.1,.14-2.1-1.35,0-4.06,.75-8.11,.89-12.17,.09-1.58,.14-3.26,.14-4.85,0-1.26,.28-2.47,.42-3.68,.42-3.17,.51-6.48,.79-9.7,.09-1.03,1.31-1.26,2.19-1.26,.47,0,1.17,.19,1.49,.61,.89,1.21,1.77,2.52,2.19,4.01,.56,2,5.69,11.05,7.09,12.63,.75-.79,4.2-8.25,4.85-9.56,.28-.51,.65-.93,.93-1.45,.98-1.77,1.86-3.59,2.84-5.36,.51-.84,1.26-.93,2.14-.93s1.54,0,1.63,1.03c.14,1.4,.37,2.75,.56,4.1,.37,2.24,.42,4.48,.7,6.71,.19,1.72,.56,3.31,.56,5.13s.47,4.47,.61,6.43c.14,1.63,.09,3.22,.37,4.85,.19,1.21,.42,2.56,.42,3.82,.01,1.22-1.48,.98-2.37,.98h0Z" style="fill: #a30c33;"/>
  </g>
  <g id="unity">
    <g id="unity-2">
      <path id="Y" d="M730.66,521.38c-2.56,4.2-4.71,8.62-7.09,12.96-.75,1.4-1.77,2.7-2.42,4.2-.33,.75-.33,5.41-.33,6.53,0,1.68,.28,3.36,.28,4.99,0,.51-.14,.98-.33,1.45-.19,.42-2.98,.28-3.59,.28-1.45,0-1.68-.19-1.68-1.63,0-1.35-.05-11.19-.33-11.75-1.07-2.1-10.58-17.95-10.58-18.69v-.05c.47-.51,1.17-.23,1.73-.23,1.07,0,2.05-.37,3.12-.37,.93,0,1.58,0,2.05,.89,1.54,2.94,3.08,5.83,4.43,8.81,.61,1.26,1.3,2.8,2.19,3.82,1.21-1.82,2.28-3.73,3.31-5.69,.61-1.17,.98-2.38,1.58-3.54,.56-1.17,1.17-2.33,1.77-3.5,.23-.42,.42-.75,.93-.75,1.68,0,3.36,.05,4.99,.14,.33,0,.84,.05,.84,.47,.01,.4-.64,1.33-.87,1.66h0Z" style="fill: #fff;"/>
      <path id="T" d="M686.24,524.83v-.05h-3.26c-.65,0-.51,.33-.51,.84,0,1.58-.05,3.17-.05,4.75,0,.98,.14,1.96,.14,2.94s-.09,1.82-.09,2.75v11.47c0,.89,.14,1.72,.14,2.56,0,1.45-.51,1.86-1.86,1.86-4.57,0-3.59-.28-3.59-4.75,0-3.03-.09-6.11-.09-9.14,0-.79,.09-1.54,.09-2.28,0-2.38-.19-4.71-.19-7.09,0-.28,.09-.61,.09-.93,0-.84-.23-1.63-.19-2.47,0-.42-.05-.56-.56-.56-2.1-.14-4.24-.05-6.39-.14-.79,0-1.03-.37-1.07-1.17-.05-.84-.09-1.72-.09-2.56,0-.75,.14-1.68,1.07-1.68,3.92,0,7.83,.14,11.75,.05,2.66,0,5.41-.14,8.06,.19,.98,.09,.93,.93,.93,1.68,0,4.47-.37,3.73-4.33,3.73h0Z" style="fill: #fff;"/>
      <path id="I" d="M652.86,548.28c-.19,1.03,.23,3.68-1.26,3.68-4.43,0-4.24,.51-4.24-3.59-.09-4.2-.28-8.44-.28-12.63,0-1.82,.19-3.59,.19-5.41,0-1.07-.14-2.19-.14-3.26v-6.81c0-1.12,2.94-.89,3.78-.89,.98,0,1.54,.37,1.54,1.35l-.05,4.38c0,1.12,.14,2.28,.14,3.45,0,1.54-.19,3.08-.19,4.57,0,1.68,.23,3.31,.23,4.94,0,.7,.23,1.3,.23,1.96,0,.42-.23,.75-.23,1.07,0,1.07,.23,2.1,.23,3.26,0,1.07,.09,2.14,.09,3.17,0,.29,0,.52-.04,.76Z" style="fill: #fff;"/>
      <path id="N" d="M630.03,535.46c-.19,1.35,0,2.98,0,4.38,0,1.87,.05,3.68,.05,5.5s.09,4.01-.47,5.78c-.14,.47-.47,.75-1.03,.75-1.21,0-2.42-.05-3.64-.19-.93-.09-1.63-.51-2.05-1.4-.65-1.31-1.12-1.26-1.44-1.77-.75-1.26-1.63-2.42-2.52-3.54-1.35-1.68-2.47-3.59-3.73-5.31-.51-.75-1.12-1.45-1.68-2.19-1.17-1.63-2.24-3.36-3.45-4.99l-.14,.09c-.05,.19-.09,.42-.09,.65,0,2.28,.14,4.62,.14,6.9,0,.75-.23,1.54-.23,2.28,0,1.91,.33,3.87,.33,5.78,0,2.42,.47,3.78-2.52,3.78-.61,0-1.17-.05-1.77-.14-.65-.05-.93-.37-.93-1.03-.14-1.86-.19-3.78-.19-5.69,0-2.84,.14-5.69,.14-8.48s-.33-5.59-.33-8.34c0-.56,.09-1.12,.09-1.63,0-1.77-.19-3.54-.19-5.27,0-1.31,.33-1.91,1.68-1.91,.79,0,2.56-.09,3.03,.61,.93,1.45,1.77,2.89,2.7,4.33,.23,.37,.56,.7,.84,1.07,1.4,1.72,4.85,6.67,5.73,8.48,.51,1.12,5.22,7.5,6.06,8.02,.05-.19,.05-.33,.05-.51,0-1.58-.09-3.17-.09-4.71,0-.61,.09-1.21,.09-1.86v-3.08c0-1.45-.23-2.94-.23-4.43,0-.37,.14-.7,.14-1.07,0-.33-.14-.7-.14-1.03,0-1.72,.05-3.54,.23-5.27,.09-.84,1.21-1.03,1.91-1.03,.47,0,.89,.14,1.35,.14,.42,0,.79-.19,1.21-.19,.37,0,.84,.23,.89,.7,.28,1.77,.19,3.59,.28,5.41,.05,1.17,.19,2.33,.19,3.5,0,2.29-.04,4.62-.27,6.91Z" style="fill: #fff;"/>
      <path id="U" d="M588.03,533.82v4.75c0,.89-.14,1.82-.23,2.7-.14,1.21-.05,2.94-.56,4.06l-.09,.19-.79,1.91c-.56,1.49-2.14,2.42-3.36,3.22-.7,.47-1.4,.75-2.24,.84-.93,.05-1.73,.37-2.66,.37-5.87,0-8.58-3.12-9.7-8.53-.37-1.82-.19-4.34-.23-6.25-.05-3.64-.19-7.27-.19-10.86,0-1.63-.23-3.22-.23-4.8,0-2.33,.23-2.14,2.42-2.14,.65,0,1.73-.09,2.28,.14,.33,.09,.47,.33,.47,.65,.19,2.33,.33,4.66,.33,7.04,0,.79-.09,1.54-.09,2.33,0,.47,.14,.93,.14,1.35,0,.47-.14,.89-.14,1.35,0,2.1,.14,4.2,.14,6.29,0,3.59,.37,8.3,4.99,8.3,.51,0,2-.23,2.42-.47,.28-.19,.56-.42,.7-.7,1.68-3.73,1.54-6.11,1.54-10.07,0-2.98-.33-6.01-.33-9,0-1.49-.14-5.69,.28-6.85,.23-.65,1.35-.56,1.91-.56,3.92,0,2.84,1.12,2.84,4.24,0,.56,.05,1.07,.19,1.58,.23,.84,.23,5.45,.23,6.62,0,.77-.04,1.51-.04,2.3h0Z" style="fill: #fff;"/>
    </g>
  </g>
  <g id="ec">
    <g id="ec-2">
      <path id="C" d="M635.35,498.13c-2,.71-1.86,.79-4.07,.79-4.14,0-8.28-.43-12.5-.43-1,0-2,.14-3.07,.14-1.36,0-2.71-.21-4.07-.21-.79,0-1.57,.29-2.43,.29h-3.21c-3,0-2.43-3.71-2.93-4.28v-.29c0-3.86,.14-7.78,.14-11.64,0-.93-.07-1.86-.07-2.79,0-1.57,.29-3.07,.29-4.57,0-1.29-.36-2.64-.36-3.93,0-1.14,.14-2.21,.14-3.36,0-1.71-.21-3.5-.21-5.21,0-1.14,.14-2.21,.14-3.36,0-.86-.36-1.64-.36-2.57,0-1.07,.14-2.14,.14-3.21,0-.57-.07-1.07-.07-1.64,0-1.5,1.36-3.14,2.93-3.14,1,0,1.93,.29,2.86,.29,.5,0,1-.14,1.5-.14,1,0,1.79,0,2.71-.29,.21-.07,.36-.07,.57-.07,1,0,2-.07,3.07-.07,.57,0,1.21,.07,1.86,.07,1.64-.07,3.36-.29,5-.29,.43,0,.79,.14,1.21,.14,2.36,0,4.71,.29,7.07,.29,.93,0,1.86-.07,2.71-.07,1.07,0,2.14,.93,2.14,2,0,2.29,0,4.64-.07,6.86-.07,.71-.21,1.36-.79,1.79-.21,.07-.5,.21-.71,.21-.57,0-1.21-.14-1.79-.14-.79,0-1.57,.14-2.43,.14-1.21,0-2.43-.07-3.64-.07-4.28,0-8.57,.14-12.85,.29v1.71c0,1.07,.07,2.21,.14,3.36,0,.57,.07,.71,.71,.79h1.07c3,0,6-.36,9.07-.36,.64,0,1.36,.07,2.07,.07,.43,0,.93-.14,1.43-.14,.86,0,1.79,.21,2.64,.21,1.79,0,.86,.14,2.14,.57,.71,.29,.93,.71,1,1.43,.21,1.14,.43,2.21,.43,3.36,0,.79-.07,1.64-.07,2.43,0,1.71,0,2.36-2,2.57-1.43,.14-2.86,.43-4.28,.43-1.14,0-2.21-.14-3.29-.14-.21,0-.43,.07-.71,.07-.5,0-1-.14-1.57-.14-2.21,0-5.78,0-7.86,.36-.43,.07-.57,.36-.57,.79-.14,1.07-.21,2.21-.21,3.29s.14,2.14,.14,3.21c0,1.29-.07,2.57,0,3.79,0,.43,.21,.57,.57,.57,1.43,.07,2.93,.21,4.43,.21,1,0,2-.07,3-.07,1.14,0,2.21,.07,3.36,.07,.5,0,1-.14,1.5-.07,2.29,0,4.64,0,6.93,.14,.36,0,.79,.07,1.21,.07,1.14,0,1.5,1.43,1.5,2.36,0,.86-.14,1.79-.14,2.64,0,.43,.21,.93,.21,1.43,0,1.32-.27,2.89-1.7,3.46h0Zm-29.99-29.21c0-.64,.14-2.29-.36-2.71l-.14,.29c.21,2.14-.14,4.28,.36,6.36,.21-.79,.14-1.5,.14-2.36v-1.58h0Zm.42-17.85c-.36,0-.5,.29-.5,.57,0,.21,.21,.57,.43,.57,.29,0,.5-.5,.5-.71s-.21-.43-.43-.43h0Zm26.71,41.35c-2.57,0-5.14,.36-7.71,.36-1,0-2-.21-3-.21-2.57,0-5.07-.36-7.64-.36-1.36,0-2.64,.21-4,.21-.36,0-.71-.14-.71-.57,0-.36,.14-.64,.14-.93,0-4.43,.07-8.93,.07-13.35l-.07-6.5,1.71-.07h.14c1.71,.07,3.43-.29,5.21-.29,1.57,0,3.21,.36,4.78,.36,.64,0,1.29-.14,1.93-.14,2.21,0,4.5,.14,6.71,.14,.5,0,1.14-.14,1.14-.71,0-.86-.86-1.21-1.57-1.21-2.93,0-5.86,.29-8.78,.29-.93,0-1.93-.21-2.86-.21-2.07,0-4.14,.21-6.14,.21-.79,0-1.5,0-2.21-.07-.07-2,0-4.07-.14-6.14,0-1-.14-1.93-.14-2.93s.14-2,.14-3c0-.21-.07-.29-.07-.5,0-.64,0-1.36,.07-2,2-.07,4-.21,6.07-.21,2.93,0,5.93,.07,8.93,.07,.36,0,.71,.14,1.07,.14,1,0,2-.21,3-.21,.71,0,4.21,.43,4.21-.64,0-1-1.36-1.14-2.07-1.14-1.07,0-2.21,0-3.36,.14-.86,.07-1.79,.29-2.64,.29s-1.71-.29-2.57-.29c-1.36,0-2.79,.14-4.21,.14-.43,0-.86-.07-1.29,0-.79,0-1.57,.14-2.43,.14s-1.71-.21-2.64-.21c-.57,0-3.64,.07-3.93,.43,0,.07-.07,.21-.07,.29,0,.36,.14,.64,.14,.93,0,.36-.07,.64-.07,.93v1.64c.07,3.43,0,7,.14,10.5,.14,2,.29,4,.29,6,0,1-.14,2.07-.14,3.14,0,.29,.07,.64,.07,.93,0,2.79,.07,5.5,.07,8.28,0,1.93-.21,3.93-.21,5.86,0,1.14,.43,2.21,1.79,2.21,1.14,0,2.43-.36,3.71-.36,1.21,0,2.43,.14,3.71,.14,2.79,0,5.64,.29,8.43,.29,.93,0,1.86-.21,2.79-.21,1.57,0,3.07,.07,4.64,.07,.36,0,.86-.14,.86-.57,0-.6-.79-1.1-1.29-1.1h0Zm-20.14-7.07h-.14c-.29,0-.64,.21-.64,.57,0,.14,.14,.29,.29,.36,.64-.21,.86-.14,1-.86-.22-.07-.36-.07-.51-.07h0Zm5.57,10.28h-2.5c-.64,0-1.29,.14-1.93,.36v.07c1.5,.07,3,.07,4.5,.07,.14,0,.79,.07,.79-.21,0-.22-.71-.29-.86-.29Zm3.5-44.99c-1.43,.07-2.86-.14-4.28-.14-.29,0-.93,.14-1.14,.43,.64,.07,1.29,.21,1.93,.21,1.14,0,2.29,0,3.43-.14l.21-.21-.15-.15h0Zm3.07,22.21c-1.29-.07-2.64,0-3.93,0-.36,0-1.93,.14-2.14,.29,.07,.14,.36,.21,.57,.21,.86,0,1.79,.07,2.64,.07,1.07,0,2.43,.07,3.43-.21-.14-.22-.28-.36-.57-.36h0Zm7.72-6.43h-.07c-.21,0-.5,.14-.5,.36,0,.14,.14,.21,.21,.29,.5-.14,.64-.14,.71-.57-.14-.08-.21-.08-.35-.08h0Zm2,29.71c-.43,0-.64,.29-.86,.57,.21,.14,.43,.21,.64,.21,.43,0,.57-.36,.64-.71-.14-.07-.28-.07-.42-.07h0Zm.21-41.06c-.21,0-.79,.43-.79,.71l.07,.21,.14,.07c.29,0,.86-.43,.86-.79l-.28-.2h0Z" style="fill: #fff;"/>
      <path id="E" d="M684.47,463.07c-.21,.36-.5,.64-.93,.64-.57,0-4.64-3-6-3.36-1.64-.43-3.5-1.07-5.28-1.07-.71,0-1.43,.07-2.14,.29l-1.71,.43c-3.21,.79-6,4-7.64,6.64-.43,.71-.79,1.43-.93,2.21-.29,1.21-.64,4.43-.64,5.64,0,1.93,.71,3.86,1.29,5.64,.07,.14,1.86,3.21,2,3.36l1,1.07c1.21,1.21,3.71,1.79,5.36,2.36,1.14,.43,2.43,.71,3.64,.71,1.36,0,4.71-.43,6-.93,1.57-.64,3.57-2.71,4.86-2.71h.5c.64,.14,.79,.21,.93,.93,.21,.64,.21,1.36,.21,2.07,0,2.64,0,5.21-.36,7.78-.07,.79-.43,1.43-1.14,1.79-3.86,2.29-6.36,2-10.57,2.14h-2.79c-1.86-.07-3.57-.64-5.28-1.07-.64-.14-1.29-.36-1.93-.71-2.21-1.14-4.71-2.36-6.57-4.07l-1.64-1.57c-.79-.79-1.43-2-2.14-2.93-.86-1.14-1.71-2.29-2.43-3.57-.5-.93-.64-1.86-1.07-2.79-.36-.79-.57-1.57-.79-2.5-.14-1.14-.86-4.21-.86-5.21,0-.43,.14-.86,.14-1.29,0-1.29,.07-2.5,.29-3.79,.5-2.86,2.79-7.78,4.57-10.07,.57-.86,1.29-1.57,1.93-2.29,1.5-1.71,3.36-2.93,5.14-4.36,1.29-1,3-1.5,4.5-2.14,1.93-.86,4.5-1.57,6.64-1.57,1.36,0,2.71-.07,4.07-.07,2.5,0,5.93,.5,7.93,2.07l1.29,1.07c.5,.43,.71,1,.79,1.64,.14,1,.36,3.21,.36,4.21-.02,.52-.45,5.09-.6,5.38h0Zm-2.64,27.21c-.14,0-.36,.07-.5,.14-1,.64-1.71,1-3,1.14-.07,0-.21,.07-.36,.14-1.07,.5-2.07,.57-3.21,.57h-1.29v.07h-1.21c-3.86,0-8.71-1.93-11.71-4.29l-.86-.64c-1.5-.93-3.21-3.64-4.14-5.21-.64-1-1.71-4.93-1.71-6.14-.07-1.07-.14-2.07-.14-3.14,0-1.36,.07-3.86,.57-5.07,.71-1.64,1.71-4.28,2.86-5.64,1.79-2.07,3.78-3.64,6-5.28,2.21-1.5,7.07-2.5,9.78-2.5,1.5,0,2.93,.21,4.43,.79,1.21,.43,2.5,.86,3.57,1.57,.21,.21,.71,.57,1,.57s.36-.21,.36-.5c0-.36-.5-1-.71-1.21-1.43-1.21-2.71-1.93-4.57-2.29-1.21-.21-2.21-.64-3.5-.64-2.29,0-4.36,.5-6.5,1-2,.43-5.71,2.29-7.14,3.71-.86,.86-1.79,1.71-2.71,2.5-.71,.64-2.43,3.07-2.71,3.93l-1.57,4.21c-.29,.79-.5,1.64-.5,2.5-.07,1.29-.14,2.64-.14,3.93,0,.5,.14,.93,.21,1.36,.29,1.14,.43,2.21,.5,3.36,.07,.79,.79,2.43,1.21,3.21,1,2,2.29,3.93,3.93,5.5,.86,.71,1.71,1.29,2.57,2,.64,.5,1.29,1,2,1.36l3.14,1.36c.5,.29,1.07,.43,1.64,.5l2.64,.57c1,.21,2,.29,3,.29,1.79,0,9.36-.71,9.36-3.14-.02-.31-.23-.59-.59-.59h0Zm-27.63-30.42c-.29,0-.57,.57-.71,.86h.14c.29,0,.86-.21,.86-.57-.01-.15-.15-.29-.29-.29h0Zm2.14,29.42c-.14-.29-1.64-2.36-1.79-2.43-.14,.07-.21,.21-.21,.36,0,.86,1.29,1.43,1.71,2l.14,.07h.15Zm.71-17.14h-.07c-.29,.79-.36,1.86-.36,2.71,0,1,.29,2,.5,3,.14-.79,.21-2.36,.21-3.21,.01-.5-.13-2.15-.28-2.5Zm10.29-14.64l-.43,.29v.07h.14c.43,0,3.21-.71,3.86-.93,.21,0,.43-.07,.57-.29-.72-.07-3.57,.43-4.14,.86Zm1.78-6.79c-.21,0-.43,.21-.64,.36,.07,.07,.21,.14,.29,.14h.14c.07,0,.64-.07,.64-.21,0-.21-.21-.29-.43-.29Zm8.64,39.35c0-.07-.64-.57-.71-.64-.14,.36-.5,.43-.79,.57v.07c.29,.14,.5,.29,.86,.29,.21,0,.36-.07,.57-.14l.07-.15h0Zm5.07,5l-.14-.14h-.29c-.36-.07-.57,.5-.64,.79,.29,0,1.07-.29,1.07-.57v-.08h0Zm-.28-34.92c-.07,0-.29,.21-.29,.36s.21,.79,.36,.79c.21,0,.43-.21,.43-.43,0-.29-.22-.65-.5-.72Z" style="fill: #fff;"/>
    </g>
  </g>
  <g id="Rain_Splash" data-name="Rain Splash">
    <path d="M492.43,233.74s-2.28-21.64,8.74-24.91c9.85-2.92,10.89-3.23,11-3.26,.37-.11-1.51-2.7-1.69-2.85-2.34-1.9-5.4-.24-7.8,.7-11.75,4.56-14,19.43-10.25,30.32Z" style="fill: #fff;"/>
    <path d="M486.58,233.62c-1.31-9.28-4.74-19.08-9.52-27.13-5.62-9.46-12.32-12.11-22.85-9.21-2.4-3.91-.25-9.34,4.59-10.04,7.04-1.02,16.22,5.83,19.99,11.26,6.86,9.87,6.17,23.63,7.79,35.12Z" style="fill: #fff;"/>
    <path d="M747.44,319.41s9.48-15.58,18.48-12.15c8.05,3.06,8.9,3.39,8.99,3.42,.3,.12,.37-2.56,.32-2.76-.6-2.46-3.48-2.9-5.55-3.5-10.15-2.93-19.2,5.83-22.24,14.99Z" style="fill: #fff;"/>
  </g>
</svg>