<?xml version="1.0" encoding="utf-8"?>
<!-- Generator: Adobe Illustrator 26.2.1, SVG Export Plug-In . SVG Version: 6.00 Build 0)  -->
<svg version="1.1" xmlns="http://www.w3.org/2000/svg" xmlns:xlink="http://www.w3.org/1999/xlink" x="0px" y="0px"
	 viewBox="0 0 100 90" style="enable-background:new 0 0 100 90;" xml:space="preserve">
<style type="text/css">
	.st0{fill:#C4161C;}
	.st1{fill:#FFFFFF;}
</style>
<g id="red_background">
	<rect x="-0.2" y="-0.3" class="st0" width="100.2" height="90.3"/>
</g>
<g id="outline_text">
	<path class="st1" d="M37.4,55.8c-0.3,0.2-0.6,0.3-1.2,0.3c-0.4,0-0.8,0-1.3,0s-1,0-1.5,0s-1.1,0-1.5,0c-0.5,0-1,0-1.5,0
		c-0.1-0.3-0.2-0.6-0.1-0.8c0.1-0.3,0.3-0.5,0.7-0.6l0.7-0.3v-5.5c0-0.9-0.1-1.5-0.5-2.1c-0.3-0.5-0.9-0.8-1.7-0.8
		c-0.4,0-0.7,0-0.9,0.1c-0.2,0-0.5,0.1-0.7,0.2v8.2l1.3,0.4c0,0.3,0,0.5-0.1,0.7s-0.3,0.3-0.5,0.5s-0.6,0.2-1,0.2
		c-0.3,0-0.7,0-1.2,0s-1.1,0-1.8,0c-0.6,0-1.2,0-1.7,0c-0.6,0-1.1,0-1.6,0c-0.2-0.3-0.2-0.6,0-0.9c0.1-0.3,0.4-0.5,0.7-0.6l1.1-0.3
		v-9.4L21.2,45c-0.1-0.5-0.1-0.8,0.1-1.2c0.2-0.3,0.6-0.5,1.2-0.6l5.4-0.8v2.5c0.9-0.9,1.7-1.5,2.4-1.9c0.8-0.4,1.6-0.6,2.4-0.6
		c0.9,0,1.6,0.2,2.2,0.8c0.5,0.5,0.9,1.2,1.2,2.1c0.8-0.9,1.6-1.6,2.4-2.1c0.8-0.5,1.7-0.7,2.7-0.7c1.2,0,2.2,0.5,2.8,1.4
		s1,2.2,1,3.9v6.8l1.9,0.4c0,0.3-0.1,0.5-0.2,0.7c-0.1,0.2-0.3,0.3-0.6,0.5c-0.3,0.1-0.6,0.2-1,0.2c-0.5,0-1,0-1.5,0s-1,0-1.5,0
		s-1.1,0-1.7,0c-0.6,0-1.1,0-1.7,0c-0.1-0.3-0.2-0.5-0.1-0.8c0.1-0.3,0.3-0.5,0.6-0.6l0.9-0.3v-5.5c0-0.4,0-0.8-0.1-1.1
		s-0.2-0.7-0.3-0.9s-0.4-0.5-0.7-0.6s-0.7-0.2-1.1-0.2c-0.3,0-0.5,0-0.8,0.1s-0.5,0.2-0.7,0.3v8l1.4,0.4
		C37.8,55.2,37.7,55.6,37.4,55.8z"/>
	<path class="st1" d="M60.5,47.4c0,0.4,0,0.8-0.1,1.2c0,0.4-0.1,0.8-0.2,1.2h-7.7c0.1,1,0.6,1.8,1.3,2.4c0.7,0.6,1.6,0.9,2.6,0.9
		c0.8,0,1.5-0.1,2.1-0.3s1.1-0.5,1.5-0.8c0.3,0.2,0.4,0.5,0.4,0.7c0,0.4-0.1,0.8-0.4,1.3s-0.7,0.9-1.2,1.2c-0.5,0.4-1.1,0.7-1.8,0.9
		s-1.4,0.4-2.2,0.4c-2.2,0-3.9-0.5-5.1-1.5s-1.8-2.7-1.8-5c0-1,0.2-2,0.6-3c0.4-0.9,0.9-1.8,1.6-2.5s1.5-1.3,2.4-1.7
		s1.9-0.6,2.9-0.6c1.7,0,3,0.5,3.9,1.4C60.1,44.5,60.5,45.8,60.5,47.4z M56,45.4c-0.3-0.5-0.8-0.8-1.3-0.8s-0.9,0.3-1.3,0.8
		c-0.4,0.5-0.6,1.3-0.8,2.2l3.7-0.1C56.4,46.6,56.3,45.9,56,45.4z"/>
	<path class="st1" d="M70.1,54.7c0.1,0.4,0,0.7-0.3,1s-0.6,0.4-1.2,0.4c-0.5,0-1.1,0-1.6,0c-0.6,0-1.2,0-1.8,0c-0.6,0-1.2,0-1.8,0
		s-1.2,0-1.7,0.1c-0.1-0.3-0.2-0.5-0.1-0.8c0.1-0.3,0.3-0.4,0.7-0.6l1.1-0.4V36.9l-2.1-0.1c-0.1-0.4-0.1-0.7,0.1-1
		c0.2-0.3,0.6-0.5,1.2-0.7l5.6-1v20.1L70.1,54.7z"/>
	<path class="st1" d="M79.3,54.7c0.1,0.4,0,0.7-0.3,1s-0.6,0.4-1.2,0.4c-0.5,0-1.1,0-1.6,0c-0.6,0-1.2,0-1.8,0c-0.6,0-1.2,0-1.8,0
		c-0.6,0-1.2,0-1.7,0.1c-0.1-0.3-0.2-0.5-0.1-0.8s0.3-0.4,0.7-0.6l1.1-0.4V36.9l-2.1-0.1c-0.1-0.4-0.1-0.7,0.1-1s0.6-0.5,1.2-0.7
		l5.6-1v20.1L79.3,54.7z"/>
</g>
</svg>
